<?xml version="1.0" standalone="no"?>
<!DOCTYPE svg PUBLIC "-//W3C//DTD SVG 20010904//EN"
 "http://www.w3.org/TR/2001/REC-SVG-20010904/DTD/svg10.dtd">
<svg version="1.0" xmlns="http://www.w3.org/2000/svg"
 width="1024.000000pt" height="1024.000000pt" viewBox="0 0 1024.000000 1024.000000"
 preserveAspectRatio="xMidYMid meet">

<g transform="translate(0.000000,1024.000000) scale(0.100000,-0.100000)"
fill="#000000" stroke="none">
<path d="M0 5120 l0 -5120 5120 0 5120 0 0 5120 0 5120 -5120 0 -5120 0 0
-5120z m5165 4456 c101 -43 73 -186 -42 -210 -68 -15 -133 54 -119 127 8 43
65 97 102 97 13 0 40 -7 59 -14z m10 -466 c47 -231 148 -510 230 -635 56 -85
210 -237 267 -264 70 -33 137 -36 248 -12 117 26 189 61 305 148 92 69 324
296 450 441 39 44 75 81 81 81 7 1 15 8 18 17 4 9 9 15 11 12 5 -5 -17 -59
-104 -257 -50 -113 -192 -509 -216 -601 -22 -85 -38 -102 -19 -20 17 74 12 93
-5 23 -7 -26 -17 -59 -22 -72 -5 -13 -8 -24 -7 -26 2 -1 28 -12 58 -25 65 -27
207 -107 216 -122 7 -11 -14 -1 -108 53 -67 39 -84 46 -74 30 3 -4 -16 -1 -42
8 -26 9 -49 19 -50 24 -2 4 -8 5 -13 1 -5 -3 -69 2 -141 12 -215 27 -366 4
-527 -82 -46 -24 -79 -38 -73 -31 15 17 180 103 215 111 15 3 27 11 27 16 0
16 -47 2 -136 -40 -78 -36 -214 -146 -214 -173 0 -6 19 7 43 28 l42 40 -39
-42 c-37 -40 -66 -47 -66 -17 0 7 -13 29 -30 47 -16 19 -26 37 -22 41 4 4 2 6
-3 4 -12 -3 -108 62 -101 69 3 3 24 -10 48 -28 31 -24 37 -26 21 -8 -24 26
-90 69 -79 50 10 -15 6 -14 -58 14 -106 47 -202 66 -351 72 -100 3 -136 1
-125 -6 8 -6 33 -11 55 -11 63 0 146 -26 258 -78 124 -59 212 -138 255 -228
24 -53 27 -70 27 -164 0 -95 -4 -116 -38 -218 -20 -63 -35 -117 -32 -122 3 -5
1 -11 -4 -14 -5 -3 -12 25 -16 62 -21 206 -51 284 -149 396 -144 165 -220 219
-409 290 -186 70 -249 81 -462 80 l-190 0 -130 -38 c-192 -56 -171 -58 -184
17 -15 89 -71 250 -176 507 -121 296 -157 390 -153 402 2 6 40 -34 85 -88 161
-197 410 -415 575 -503 156 -84 317 -113 396 -72 67 36 176 125 225 186 110
136 273 548 333 840 8 44 19 84 22 90 7 12 25 -53 57 -215z m-998 -22 c29 -27
30 -71 3 -98 -58 -58 -141 28 -90 93 26 33 56 34 87 5z m1965 5 c23 -21 24
-75 1 -95 -33 -29 -59 -30 -89 -5 -22 19 -26 29 -20 51 14 58 70 84 108 49z
m723 -27 c40 -17 57 -46 53 -89 -4 -41 -60 -81 -98 -71 -14 3 -30 7 -37 7 -7
0 -10 4 -7 9 3 5 -2 18 -12 29 -33 37 -18 100 31 119 28 12 31 12 70 -4z
m-3422 -17 c30 -16 37 -28 37 -67 0 -43 -38 -82 -80 -82 -19 0 -40 9 -55 25
-67 66 14 168 98 124z m898 -360 c38 -48 107 -123 154 -167 84 -80 100 -100
69 -88 -8 3 -13 2 -9 -3 3 -5 -11 -15 -30 -21 -37 -12 -114 -2 -157 21 -17 9
-25 6 -51 -18 -19 -17 -26 -20 -18 -8 8 11 -6 0 -30 -25 l-44 -45 -2 115 c-2
69 -14 182 -31 280 -15 91 -26 173 -24 183 2 12 20 -7 54 -60 28 -43 82 -117
119 -164z m1748 179 c-4 -24 -21 -103 -39 -177 -26 -112 -31 -150 -28 -231 2
-54 -1 -101 -7 -107 -16 -16 -105 35 -105 60 0 6 14 -2 30 -18 17 -16 30 -25
30 -20 0 5 5 4 12 -3 7 -7 17 -12 23 -12 15 1 -35 40 -50 40 -7 0 -15 5 -17
11 -2 5 -11 11 -20 12 -9 2 -23 8 -31 15 -11 9 -22 10 -42 2 -15 -6 -64 -10
-108 -9 l-81 1 54 47 c70 60 231 239 312 346 34 47 66 85 69 85 3 0 3 -19 -2
-42z m-292 -459 c-29 -6 -60 -6 -80 0 -26 8 -18 9 48 9 77 0 78 -1 32 -9z
m-1507 -33 c0 -2 -8 -10 -17 -17 -16 -13 -17 -12 -4 4 13 16 21 21 21 13z
m-685 -380 c-11 -7 -44 -24 -72 -38 -29 -14 -50 -28 -47 -31 3 -3 -8 -13 -25
-21 -35 -18 -45 -20 -36 -6 3 6 -1 7 -10 3 -12 -4 -13 -8 -5 -13 8 -5 7 -9 -5
-14 -9 -3 -13 -11 -9 -17 4 -7 3 -9 -4 -5 -14 9 -83 -25 -75 -37 3 -6 1 -7 -5
-3 -13 8 -172 -86 -222 -132 -19 -18 -41 -30 -48 -27 -7 3 -10 1 -7 -5 9 -15
-227 -160 -545 -335 -267 -146 -266 -145 -274 -193 -42 -269 -57 -1160 -23
-1467 24 -219 40 -313 97 -580 125 -581 269 -983 516 -1444 244 -455 524 -832
883 -1191 312 -311 522 -479 867 -690 182 -112 330 -197 447 -256 71 -35 123
-64 118 -64 -27 0 -372 184 -519 278 -59 37 -129 81 -157 97 -61 35 -314 215
-379 270 -26 22 -57 48 -69 58 -46 38 -182 163 -196 180 -16 18 -36 24 -26 7
3 -5 1 -10 -5 -10 -7 0 -9 9 -5 23 5 17 4 19 -4 7 -9 -13 -15 -8 -13 11 1 4
-9 5 -21 3 -12 -2 -16 -2 -9 2 16 8 15 34 -2 34 -8 0 -16 7 -20 15 -3 8 -11
14 -18 13 -7 -2 -13 4 -13 12 -1 16 -7 16 -40 4 -17 -7 -18 -6 -5 8 8 9 20 14
25 11 6 -3 -6 10 -25 30 -19 19 -38 33 -43 30 -4 -2 -6 1 -5 9 2 7 -5 12 -15
12 -14 -2 -15 1 -6 13 10 12 8 13 -17 9 -27 -5 -28 -4 -10 9 27 21 -2 20 -31
0 -14 -10 -24 -12 -28 -5 -3 5 1 10 9 10 9 0 16 5 16 11 0 5 4 8 9 4 5 -3 12
-1 15 3 3 5 -6 15 -19 22 -13 7 -22 16 -20 20 2 4 -2 7 -10 8 -8 1 -22 3 -30
4 -8 1 -12 5 -9 9 2 5 11 6 19 2 23 -8 18 6 -13 41 -24 27 -32 31 -50 23 -25
-11 -30 -32 -6 -23 17 7 44 -9 44 -26 0 -6 -7 -5 -15 2 -8 7 -24 10 -35 7 -11
-3 -18 -1 -14 4 3 5 -4 9 -15 9 -22 0 -29 -16 -10 -22 6 -2 -8 -4 -30 -5 -26
-1 -39 2 -35 8 3 6 12 8 20 5 8 -3 14 -2 14 3 0 4 18 16 40 26 22 10 37 22 34
27 -3 5 -13 7 -21 3 -13 -4 -14 -3 -3 10 7 8 16 12 21 9 5 -3 9 -1 9 5 0 5 -4
13 -10 16 -5 3 -10 2 -10 -3 0 -19 -27 -20 -38 -2 -10 17 -8 18 15 14 21 -4
24 -2 15 8 -6 8 -23 15 -39 16 -15 1 -29 7 -31 12 -2 6 -11 10 -20 10 -14 0
-14 2 -3 9 9 6 19 4 28 -5 8 -8 19 -14 24 -14 13 0 11 18 -4 27 -7 4 -20 21
-30 36 -10 15 -22 25 -27 22 -5 -3 -11 -1 -15 5 -3 5 -1 10 6 10 8 0 6 7 -5
19 -10 11 -25 17 -34 14 -15 -4 -15 -3 -2 6 13 9 13 12 -2 28 -17 16 -18 16
-18 -4 0 -13 -8 -23 -22 -26 -22 -6 -22 -6 -4 8 20 15 20 15 1 29 -17 12 -23
12 -47 0 -28 -15 -77 -20 -64 -6 8 7 14 9 47 11 11 0 17 6 14 11 -3 6 -18 7
-33 4 l-27 -7 25 21 c25 21 25 21 5 36 -11 9 -31 14 -44 12 -26 -4 -51 2 -51
13 0 7 68 6 90 -2 38 -13 61 -15 57 -4 -2 7 -16 11 -31 10 -28 -2 -34 15 -13
36 6 7 8 12 2 11 -21 -4 -33 1 -39 16 -4 11 -2 15 8 11 10 -4 13 -1 9 9 -6 15
-23 20 -23 6 0 -14 -63 -1 -83 16 -16 15 -17 14 -11 -1 3 -10 1 -17 -5 -17 -6
0 -11 -4 -11 -10 0 -5 20 -7 48 -3 41 4 50 2 56 -12 5 -14 4 -16 -7 -6 -16 12
-83 7 -134 -11 -25 -9 -35 -9 -48 2 -15 12 -15 11 -4 -13 14 -30 19 -32 39
-14 12 10 12 9 1 -6 -12 -15 -12 -22 -1 -42 7 -13 17 -22 21 -19 5 3 6 -1 3
-9 -3 -9 4 -22 18 -31 13 -9 21 -19 19 -22 -4 -6 3 -16 34 -60 7 -9 15 -11 25
-4 12 8 12 10 -5 10 -19 1 -19 1 -1 11 14 9 20 8 27 -2 10 -16 3 -29 -17 -29
-19 0 -18 -6 12 -45 23 -31 28 -33 52 -23 46 18 74 19 68 1 -5 -11 -2 -13 10
-9 8 3 24 0 35 -8 17 -11 17 -15 5 -25 -8 -7 -12 -20 -9 -29 4 -14 3 -14 -5
-3 -7 9 -21 12 -43 8 -19 -3 -29 -3 -22 -1 7 3 9 12 6 20 -4 11 -9 12 -19 3
-22 -18 -17 -27 29 -48 23 -11 35 -20 26 -21 -8 0 -20 5 -27 12 -8 8 -12 8
-12 1 0 -15 25 -34 35 -25 5 4 5 1 1 -5 -8 -15 78 -126 89 -115 5 4 5 2 2 -4
-7 -13 79 -110 94 -106 6 1 8 -2 5 -7 -3 -5 27 -44 67 -87 39 -43 61 -70 47
-59 -95 72 -387 434 -557 690 -128 192 -342 562 -424 734 -73 150 -189 444
-257 646 -218 648 -327 1496 -293 2273 12 299 38 633 49 644 16 16 385 223
487 272 111 55 251 110 490 193 72 25 171 63 221 84 82 35 407 136 444 138 10
1 8 -3 -5 -13z m-14 -34 c-41 -29 -101 -63 -101 -58 0 5 112 76 120 75 3 0 -6
-8 -19 -17z m1016 -17 c129 -33 256 -83 341 -133 92 -55 264 -225 296 -292 16
-34 16 -34 -1 -10 -35 49 -145 165 -209 222 -82 73 -210 136 -372 182 -224 65
-422 67 -654 6 -165 -42 -172 -43 -80 -11 73 26 174 51 267 65 17 2 93 3 170
1 111 -2 161 -9 242 -30z m-36 -110 c230 -40 377 -129 501 -304 81 -113 116
-184 124 -252 9 -77 -11 -184 -45 -243 l-28 -48 -30 54 c-93 166 -172 277
-268 374 -55 55 -133 126 -173 158 -40 31 -70 61 -67 66 12 20 -67 69 -230
140 -40 17 -95 32 -107 28 -7 -3 8 -10 34 -16 85 -22 309 -134 295 -148 -2 -3
-43 16 -91 42 -85 45 -264 114 -298 114 -10 0 -18 5 -18 11 0 6 7 8 16 5 9 -4
22 -2 29 4 36 30 226 38 356 15z m2739 -35 c181 -65 596 -245 706 -306 54 -31
131 -74 170 -95 68 -38 72 -42 78 -82 38 -251 56 -853 37 -1197 -18 -329 -23
-390 -32 -390 -5 0 -6 7 -2 15 3 9 -2 22 -13 31 -19 14 -19 14 0 7 16 -5 18
-2 14 26 -3 17 0 34 5 38 5 3 3 9 -4 14 -10 7 -11 11 -2 17 7 4 14 61 18 156
6 122 4 147 -7 140 -10 -6 -10 -4 1 9 19 24 -2 21 -24 -3 -10 -11 -24 -20 -32
-20 -7 0 -13 -4 -13 -10 0 -5 -9 -10 -21 -10 -18 0 -19 -2 -5 -15 8 -8 18 -15
22 -15 4 0 4 3 1 7 -9 8 43 43 63 42 8 0 2 -7 -15 -14 -24 -12 -26 -14 -10
-16 11 -1 24 -1 28 0 5 1 7 -6 5 -16 -3 -19 -58 -33 -58 -15 0 5 12 7 26 4 19
-3 25 -1 20 7 -9 14 -43 15 -51 1 -4 -6 -35 -9 -76 -7 -54 3 -69 1 -69 -10 0
-10 5 -11 17 -5 11 7 21 5 31 -4 16 -16 32 -18 32 -4 0 6 5 10 10 10 6 0 10
-4 10 -9 0 -13 -60 -42 -74 -35 -6 3 -3 -1 8 -10 10 -8 15 -20 10 -27 -4 -8
-3 -10 5 -5 6 4 23 1 36 -8 24 -16 43 -7 29 15 -4 7 -1 10 7 7 8 -3 23 -1 34
4 20 9 20 9 1 -6 -19 -15 -19 -16 6 -16 15 0 29 -4 32 -9 4 -5 -9 -6 -29 -1
-30 7 -37 5 -46 -12 -11 -20 -36 -19 -31 1 2 12 -11 15 -21 5 -10 -11 31 -47
44 -39 8 6 10 4 4 -4 -4 -8 -17 -10 -33 -6 l-26 6 25 -20 c13 -11 18 -20 11
-21 -7 0 -24 11 -37 24 -14 14 -27 21 -30 16 -3 -4 1 -10 7 -13 7 -2 10 -8 6
-12 -4 -4 -14 -2 -23 5 -11 9 -15 9 -15 1 0 -6 7 -14 15 -17 8 -4 12 -11 8
-17 -3 -6 -1 -7 5 -3 7 4 12 2 12 -4 0 -6 5 -8 12 -4 8 5 9 0 5 -15 -4 -18 -3
-20 9 -10 12 10 13 9 8 -5 -4 -10 -13 -15 -21 -12 -8 3 -20 6 -26 6 -7 0 -6 5
3 11 12 9 12 10 1 7 -28 -8 -23 -28 8 -34 17 -4 31 -11 31 -16 0 -5 -4 -7 -9
-4 -5 3 -14 -1 -21 -9 -7 -8 -21 -15 -31 -15 -11 0 -18 -3 -18 -7 1 -5 0 -10
-1 -13 -8 -17 -5 -96 4 -102 16 -11 38 -10 31 2 -3 6 -1 10 5 10 6 0 8 5 4 11
-4 8 -9 8 -17 0 -6 -6 -16 -11 -22 -11 -5 0 -3 5 5 10 11 7 11 10 2 10 -7 0
-11 4 -8 9 3 4 17 6 31 4 13 -3 22 -9 19 -14 -3 -5 -1 -9 4 -9 5 0 19 -9 32
-20 13 -11 19 -20 15 -20 -5 0 -17 8 -28 17 -18 17 -19 17 -28 0 -6 -9 -18
-17 -27 -17 -14 0 -15 -2 -2 -10 9 -5 19 -5 26 1 12 10 44 2 44 -11 0 -4 -7
-11 -16 -14 -8 -3 -12 -2 -9 4 3 6 2 10 -4 10 -5 0 -15 -8 -20 -17 -10 -17
-12 -17 -26 1 -8 11 -18 16 -22 11 -5 -4 -2 -10 5 -12 10 -4 9 -9 -4 -24 -9
-11 -15 -22 -11 -25 3 -3 1 -17 -4 -31 -9 -24 -8 -24 23 -18 41 9 45 12 30 27
-7 7 -12 8 -12 2 0 -6 -7 -11 -15 -11 -21 0 -19 17 3 18 16 1 16 2 0 6 -10 2
-18 9 -18 14 0 16 19 10 37 -11 10 -11 30 -20 45 -20 16 0 28 -5 28 -11 0 -5
5 -7 10 -4 6 3 10 1 10 -4 0 -13 -13 -14 -25 -2 -6 6 -23 4 -44 -5 l-35 -15
23 -15 c24 -17 77 -11 66 7 -5 7 -11 6 -20 -1 -15 -12 -35 -6 -35 11 0 12 37
11 62 -2 19 -10 19 -12 -10 -29 -32 -20 -72 -23 -66 -5 2 5 -8 16 -23 23 -36
16 -38 16 -40 -9 -2 -18 0 -19 14 -7 14 11 15 11 8 -1 -6 -11 -4 -13 8 -8 11
4 17 1 17 -7 0 -8 -7 -17 -16 -20 -13 -5 -14 -9 -4 -21 10 -12 9 -15 -8 -15
-11 0 -24 -6 -29 -12 -10 -13 -12 -40 -3 -36 11 5 49 -36 39 -43 -7 -4 -5 -8
5 -12 25 -10 19 -36 -10 -48 -15 -5 -24 -12 -20 -16 3 -4 20 3 36 16 17 12 30
18 30 13 0 -4 15 -7 33 -6 17 1 22 -1 10 -3 -12 -2 -24 -11 -27 -19 -3 -9 -1
-12 4 -9 6 3 10 1 10 -6 0 -8 5 -7 17 2 13 11 17 11 20 2 5 -15 33 -17 33 -3
0 6 -5 10 -11 10 -6 0 -3 7 6 16 20 21 19 22 -40 29 -41 5 -104 33 -82 36 18
3 23 5 43 17 18 9 24 9 33 -2 9 -10 8 -15 -4 -20 -10 -4 -14 -2 -9 5 4 8 0 7
-15 0 -11 -7 -21 -14 -21 -17 0 -3 5 -2 10 1 6 4 17 2 24 -4 9 -8 18 -7 32 4
10 8 24 14 29 14 6 0 1 -6 -9 -14 -19 -15 -19 -15 3 -15 17 0 22 5 20 23 -2
12 0 31 3 42 3 11 9 34 13 50 5 24 4 28 -6 18 -15 -15 -29 -17 -29 -4 0 5 9
13 20 16 25 8 26 23 3 41 -17 13 -17 14 -1 8 21 -7 24 1 32 79 5 50 4 57 -11
58 -17 1 -17 2 -1 6 12 3 20 18 24 44 4 22 9 38 11 35 6 -6 -23 -250 -49 -406
-19 -121 -28 -156 -28 -112 0 15 -5 20 -19 17 -15 -3 -18 0 -14 13 6 15 5 15
-10 3 -9 -7 -14 -18 -10 -24 3 -6 1 -7 -5 -3 -7 4 -12 2 -12 -3 0 -6 -8 -11
-17 -11 -15 0 -16 2 -3 10 11 7 3 10 -30 9 -25 -1 -55 2 -67 6 -19 6 -23 4
-23 -14 0 -22 16 -29 22 -10 6 17 37 -1 35 -21 -1 -15 -6 -16 -31 -9 -38 11
-36 11 -36 -1 0 -5 9 -10 19 -10 11 0 23 -5 26 -10 4 -7 13 -7 24 0 12 6 22 5
31 -3 8 -8 11 -8 7 -1 -4 7 3 14 16 18 33 9 57 7 57 -4 0 -5 -7 -7 -15 -4 -8
3 -24 -1 -37 -10 -12 -9 -33 -16 -46 -16 -13 0 -21 -4 -18 -9 5 -7 -13 -8 -46
-2 -5 0 -8 6 -8 12 0 8 4 8 14 0 8 -7 17 -8 20 -3 6 9 -34 25 -42 17 -2 -2 -1
-13 3 -24 6 -19 23 -25 64 -23 8 0 25 -11 40 -24 14 -13 21 -24 14 -24 -6 0
-13 5 -15 10 -2 6 -16 13 -31 16 -18 3 -26 1 -22 -6 7 -12 3 -12 -19 -4 -9 3
-14 10 -11 14 3 5 -6 3 -19 -3 -13 -7 -22 -15 -20 -19 2 -3 0 -9 -6 -13 -5 -3
-10 -16 -10 -28 1 -21 1 -21 15 -3 13 18 14 18 12 -3 -1 -11 -7 -21 -14 -21
-8 0 -18 -12 -23 -26 -14 -35 -13 -44 5 -44 8 0 15 -4 15 -10 0 -5 -7 -10 -15
-10 -15 0 -24 -14 -29 -44 -1 -8 -5 -19 -9 -22 -12 -12 -8 -24 6 -18 8 3 20
-2 27 -11 12 -14 10 -16 -16 -10 -25 5 -26 4 -6 -4 12 -6 28 -8 35 -5 7 2 21
-2 32 -10 17 -13 18 -15 3 -16 -9 0 -18 5 -20 12 -3 7 -10 8 -17 4 -17 -11 4
-26 36 -26 12 0 24 -4 27 -8 3 -5 -8 -6 -25 -4 -16 2 -29 0 -29 -6 0 -6 -18
-9 -42 -7 -24 2 -38 1 -31 -1 8 -4 5 -12 -9 -26 -16 -16 -18 -22 -7 -29 21
-13 49 -11 64 5 19 19 8 27 -21 16 -14 -6 -26 -6 -29 0 -4 6 -3 11 2 11 36 6
61 5 78 -2 11 -4 14 -8 8 -8 -7 -1 -13 -8 -13 -16 0 -8 -5 -14 -11 -13 -6 2
-13 -5 -14 -15 -3 -14 1 -17 13 -12 14 5 15 4 4 -7 -11 -11 -15 -10 -25 3 -12
15 -67 35 -67 24 0 -3 10 -10 23 -16 19 -8 19 -9 -7 -4 -26 6 -28 4 -24 -19 3
-14 1 -23 -3 -20 -5 3 -9 1 -9 -5 0 -5 5 -13 10 -16 6 -3 10 -11 10 -17 0 -7
-6 -6 -15 2 -20 17 -19 1 1 -21 15 -16 14 -17 -8 -12 -21 5 -21 3 7 -21 17
-14 24 -25 18 -26 -7 0 -13 5 -13 11 0 6 -7 8 -16 5 -8 -3 -12 -2 -9 4 3 6 2
10 -4 10 -19 0 -17 -25 3 -38 l21 -13 -22 4 c-15 3 -23 -1 -28 -17 -4 -11 -7
-24 -6 -28 1 -5 -4 -8 -9 -8 -13 0 -13 0 6 51 90 252 205 755 244 1069 41 334
42 1469 1 1714 -12 65 -26 91 -19 34 l4 -36 -61 44 c-33 24 -86 60 -118 79
-198 124 -455 322 -612 470 -68 64 -68 64 95 5z m-840 -45 c41 -8 113 -27 160
-41 102 -31 317 -133 344 -163 l19 -21 -46 20 c-57 25 -204 40 -377 38 -88 -2
-100 -3 -40 -5 47 -1 148 -7 225 -14 122 -9 148 -15 203 -41 74 -35 81 -45 13
-19 -89 36 -200 53 -346 54 -206 2 -410 -38 -607 -118 -166 -68 -225 -101
-322 -181 -103 -85 -139 -101 -44 -20 35 30 77 66 93 81 l30 27 -40 -28 c-22
-15 -56 -42 -75 -59 -19 -17 -44 -38 -54 -46 -18 -12 -19 -12 -11 1 22 37 120
149 165 188 49 42 208 127 285 152 22 7 35 15 29 17 -14 5 -174 -52 -239 -84
-82 -41 -153 -99 -285 -233 -69 -70 -140 -137 -158 -150 l-33 -22 7 29 c10 45
132 293 159 325 14 16 23 34 19 39 -3 5 -2 8 3 7 5 -2 26 16 47 39 37 42 165
132 242 171 50 25 181 62 259 73 85 11 287 3 375 -16z m-2435 -21 c68 -6 209
-50 287 -90 98 -50 203 -127 289 -213 102 -103 273 -327 257 -337 -6 -4 -8 -3
-4 4 3 6 -8 21 -26 33 l-33 23 25 -29 c26 -31 24 -30 -54 29 -27 20 -55 35
-63 32 -19 -8 -134 52 -248 127 -171 113 -135 99 89 -35 82 -49 151 -87 153
-84 7 7 -144 98 -372 224 -99 54 -170 81 -89 33 44 -26 259 -239 250 -248 -1
-2 -52 20 -112 48 -233 110 -349 159 -362 154 -7 -2 -11 -1 -8 4 3 5 -13 13
-37 19 -174 43 -377 81 -452 83 -33 2 -35 3 -11 6 39 6 263 -25 342 -47 75
-20 77 -8 2 15 -91 27 -288 47 -475 49 -101 0 -183 2 -183 3 0 7 187 102 240
121 210 76 375 97 595 76z m-627 -211 c-32 -2 -86 -2 -120 0 -35 2 -9 3 57 3
66 0 94 -1 63 -3z m3442 -83 c106 -30 227 -91 285 -144 28 -25 44 -45 36 -46
-11 0 -9 -5 5 -22 21 -24 13 -20 -53 24 -23 16 -66 37 -96 47 -73 25 -226 51
-301 51 -125 -1 -405 -48 -503 -86 -38 -14 -95 -34 -127 -45 -33 -11 -82 -32
-110 -46 l-51 -25 55 57 c123 127 270 212 426 245 120 27 324 22 434 -10z
m-2744 -74 c84 -40 286 -133 349 -160 78 -33 56 -33 -37 0 -91 33 -391 183
-367 184 3 0 27 -11 55 -24z m-161 -61 c46 -14 114 -39 152 -56 68 -30 245
-131 240 -136 -4 -4 -141 50 -193 76 -23 11 -77 32 -120 47 -85 28 -107 39
-59 30 l30 -6 -30 14 c-16 8 -78 27 -137 42 -60 16 -108 31 -108 35 0 10 129
-17 225 -46z m-263 -10 c-46 -7 -86 -15 -88 -18 -3 -3 19 -5 48 -6 64 0 246
-58 333 -105 98 -53 247 -150 236 -154 -6 -2 -36 3 -68 11 -32 8 -78 15 -103
16 -25 1 -83 10 -130 20 -87 19 -296 37 -250 21 14 -4 38 -8 53 -9 61 -2 291
-96 280 -114 -8 -13 -151 0 -204 18 -55 20 -62 12 -9 -9 22 -9 79 -19 128 -22
48 -4 94 -10 102 -15 20 -11 9 -11 -103 1 -90 9 -231 55 -221 71 3 5 -2 6 -10
3 -8 -3 -23 -1 -33 6 -16 9 -15 10 7 5 19 -5 22 -4 10 4 -8 6 -28 11 -43 11
-19 0 -26 4 -21 12 4 6 3 8 -3 5 -6 -4 -26 -4 -44 0 -33 7 -33 7 -9 15 34 10
-64 0 -170 -18 -47 -9 -104 -26 -128 -39 -25 -14 -49 -22 -56 -18 -6 3 -8 3
-4 -2 4 -4 -1 -20 -12 -35 -11 -16 -20 -30 -20 -32 0 -1 56 -2 124 -1 105 2
124 0 122 -12 -1 -8 -8 -21 -16 -28 -10 -10 -11 -9 -5 2 5 9 3 12 -6 9 -8 -3
-14 -10 -14 -15 0 -6 -4 -15 -9 -20 -5 -5 -6 -3 -2 5 4 6 3 12 -2 12 -13 0
-49 -42 -56 -66 -6 -21 7 -212 20 -271 6 -30 4 -33 -17 -33 -45 1 -110 40
-169 102 -77 80 -78 95 -2 18 54 -54 106 -88 161 -105 16 -5 21 -4 17 4 -4 6
-14 11 -23 11 -23 0 -111 61 -154 107 -21 21 -50 63 -65 93 -24 46 -28 65 -27
120 3 75 8 117 19 145 6 17 4 17 -14 -4 -12 -13 -20 -27 -18 -30 3 -4 -11 -17
-30 -30 -19 -13 -34 -28 -34 -32 0 -10 -63 -69 -68 -64 -7 7 113 217 149 260
49 59 70 76 144 113 133 68 287 100 470 100 l120 0 -83 -13z m3211 -63 c137
-49 195 -90 352 -245 83 -82 178 -169 213 -194 83 -60 204 -121 252 -129 59
-10 48 -22 -27 -30 -143 -15 -276 45 -404 184 l-57 61 6 -66 c4 -52 2 -68 -10
-77 -8 -6 -18 -21 -22 -33 -7 -23 -140 -153 -156 -153 -6 0 -10 -5 -10 -11 0
-18 61 23 122 82 32 31 55 52 51 45 -23 -42 -62 -82 -107 -110 -84 -53 -84
-54 -82 19 0 34 4 61 9 58 4 -2 7 0 7 6 0 5 -5 13 -11 16 -6 4 -7 19 -4 36 4
18 2 36 -5 44 -7 8 -10 22 -6 31 7 17 -11 57 -23 50 -4 -3 -12 4 -19 15 -11
17 -9 19 24 19 41 0 72 -14 96 -44 17 -21 17 -20 11 19 -8 55 -44 116 -99 164
-105 92 -233 105 -379 37 -121 -57 -281 -99 -272 -72 7 21 155 95 222 109 12
3 7 5 -13 6 -18 0 -48 -5 -66 -13 -47 -20 -326 -79 -334 -71 -6 6 140 101 204
133 33 17 87 35 120 41 32 6 79 15 104 20 l45 9 -57 1 c-31 1 -58 6 -60 11 -4
13 -163 -17 -286 -53 -98 -29 -96 -21 3 16 85 32 205 65 300 83 102 20 293 12
368 -14z m-1152 -197 c27 -14 75 -42 107 -62 66 -42 232 -204 255 -249 10 -19
-28 12 -103 87 -113 111 -209 184 -292 224 -21 9 -38 19 -38 21 0 10 24 2 71
-21z m-1221 -19 c0 -2 -46 -32 -102 -67 -73 -44 -130 -89 -193 -153 -49 -50
-85 -84 -79 -76 100 140 128 165 278 252 78 44 96 53 96 44z m-363 -12 c-3 -3
-12 -4 -19 -1 -8 3 -5 6 6 6 11 1 17 -2 13 -5z m79 -16 c6 -10 -13 -9 -46 2
-23 8 -22 8 8 7 19 -1 36 -5 38 -9z m571 -63 c129 -43 252 -136 288 -216 20
-43 31 -49 40 -20 3 11 38 52 78 93 92 93 212 157 310 165 74 6 195 -21 279
-62 46 -23 226 -148 253 -177 6 -5 -30 10 -80 35 -49 24 -119 54 -155 65 -36
11 -74 23 -85 27 -11 3 18 -12 63 -34 167 -81 318 -210 431 -371 120 -170 161
-251 195 -385 53 -213 58 -393 15 -585 -11 -52 -24 -111 -28 -130 -13 -66 -23
-12 -11 63 21 136 5 308 -39 410 -18 42 -36 52 -19 10 35 -88 25 -243 -24
-361 -17 -40 -37 -76 -44 -79 -8 -3 -12 -9 -9 -14 3 -4 -18 -54 -46 -111 l-51
-102 -22 25 c-11 15 -43 53 -69 85 -27 32 -61 66 -76 75 -15 9 -38 31 -52 49
-32 44 -106 120 -116 120 -4 0 11 -19 33 -42 102 -107 166 -242 181 -378 7
-72 -16 -127 -84 -198 -25 -26 -37 -36 -27 -22 l19 24 -32 -24 c-31 -24 -46
-48 -20 -34 6 4 5 0 -3 -9 -8 -8 -35 -22 -60 -31 -38 -13 -41 -15 -17 -16 39
0 172 53 235 95 49 32 53 33 47 12 -11 -37 -51 -100 -82 -129 -59 -56 -179
-95 -326 -105 -128 -8 -105 -21 54 -29 130 -7 240 5 308 33 l36 15 -23 -25
c-59 -63 -233 -124 -327 -114 -27 3 -59 8 -70 12 -13 4 -11 1 5 -8 44 -26 134
-40 221 -35 46 3 93 9 103 13 32 14 10 -11 -42 -47 -33 -23 -72 -38 -127 -49
l-80 -17 40 -8 c22 -5 68 -9 103 -9 34 0 62 0 62 -1 0 -1 -17 -13 -37 -27 -60
-41 -144 -52 -238 -33 -90 19 -85 18 -85 8 0 -9 102 -43 190 -63 l55 -13 -51
-9 c-73 -13 -147 5 -267 67 -182 93 -309 188 -292 217 5 8 4 10 -3 5 -7 -4
-12 -5 -12 -2 0 2 -3 13 -6 23 -4 13 -3 14 4 5 6 -9 7 13 4 62 -4 70 -2 81 27
141 47 94 137 173 250 216 112 44 164 92 180 167 14 67 14 123 0 198 -16 79
-33 96 -24 23 8 -66 -13 -153 -45 -190 l-21 -24 11 23 12 24 -31 -23 -30 -22
-56 21 c-58 23 -155 30 -155 12 0 -6 -3 -9 -7 -8 -14 4 -82 -25 -78 -33 9 -13
-90 -52 -135 -53 -37 -1 -56 6 -106 40 -54 36 -71 42 -135 47 -72 6 -142 -3
-181 -24 -50 -27 -96 39 -103 148 -3 36 -6 68 -8 69 -2 2 -9 -42 -15 -98 -20
-186 7 -232 173 -298 125 -50 227 -137 266 -227 24 -57 26 -171 3 -219 -9 -19
-33 -48 -53 -64 -20 -17 -43 -37 -52 -45 -8 -8 -40 -24 -70 -36 -30 -12 -79
-32 -109 -44 -129 -55 -246 -54 -332 2 l-43 28 90 7 c91 7 206 37 213 56 3 11
-22 10 -119 -7 -76 -13 -147 -3 -206 28 -37 20 -83 55 -83 63 0 2 39 5 88 7
96 2 250 37 234 53 -6 6 -18 6 -32 -2 -28 -15 -199 4 -245 27 -49 25 -89 59
-108 91 l-17 31 43 -24 c24 -14 63 -31 87 -40 44 -16 160 -44 160 -40 0 2 -25
15 -55 30 -69 33 -184 145 -209 203 -23 52 -15 64 22 30 40 -38 114 -75 181
-93 33 -8 68 -18 78 -21 15 -5 15 -3 -2 11 -11 9 -20 20 -20 25 0 4 -4 12 -9
17 -5 5 -6 3 -2 -4 19 -34 -19 -5 -84 63 -136 144 -149 222 -65 388 26 50 58
103 73 119 14 15 22 27 18 27 -13 0 -245 -213 -270 -248 l-23 -33 -44 68 c-23
37 -68 118 -99 179 -66 127 -84 202 -84 346 -1 53 -2 95 -4 94 -1 -2 -9 -41
-17 -87 -35 -197 -9 -388 76 -562 l20 -42 -22 25 c-30 35 -89 156 -94 191 -4
35 -24 100 -35 114 -4 6 -16 55 -25 110 -20 117 -15 254 14 365 10 38 15 70
10 70 -21 0 110 297 169 381 48 70 204 223 268 264 33 21 62 43 67 51 4 7 22
16 40 19 17 4 37 11 42 15 6 4 53 21 105 38 52 17 102 33 110 36 9 3 6 5 -7 5
-28 1 -218 -50 -297 -79 -31 -12 -76 -36 -99 -54 -65 -49 -73 -52 -48 -18 37
53 145 137 248 195 179 100 282 118 420 72z m1644 -181 c272 -124 314 -150
419 -250 95 -91 122 -124 239 -279 123 -163 323 -349 390 -361 20 -4 47 -12
60 -19 22 -11 20 -13 -35 -19 -136 -15 -342 84 -384 184 -7 17 -16 30 -21 30
-14 0 -11 -8 30 -78 104 -177 182 -262 331 -357 36 -23 87 -66 113 -95 44 -49
52 -62 48 -83 -1 -5 3 -6 9 -2 20 12 58 -121 74 -260 l5 -50 -12 37 c-6 21
-20 47 -29 58 -20 22 -24 35 -8 25 6 -3 10 -2 10 4 0 14 -23 27 -27 15 -2 -6
-23 8 -47 31 -63 58 -125 89 -281 140 -150 49 -210 79 -326 167 -143 107 -335
354 -353 453 -3 15 -12 35 -21 45 -17 19 -20 34 -4 24 18 -11 -9 36 -58 99
-24 31 -40 57 -35 57 32 0 212 -182 260 -262 9 -15 20 -28 24 -28 28 0 -242
449 -320 533 l-26 28 44 -16 c60 -21 151 -84 229 -159 52 -51 60 -56 48 -30
-22 43 -147 174 -199 209 -90 61 -165 126 -231 199 -38 42 -66 76 -64 76 3 0
69 -30 148 -66z m-2582 -21 c-80 -99 -249 -265 -314 -308 -27 -19 -77 -62
-110 -97 -61 -64 -43 -61 29 6 35 32 136 93 136 82 0 -2 -22 -18 -50 -35 -27
-17 -50 -33 -50 -36 0 -6 48 21 158 87 34 21 64 38 67 38 6 0 -127 -190 -196
-282 -63 -82 -81 -113 -85 -144 -1 -11 -20 -54 -43 -93 -23 -40 -41 -75 -41
-78 0 -2 -12 -20 -26 -39 -15 -19 -22 -34 -16 -34 12 0 132 140 132 154 -1 6
-12 -2 -26 -19 -18 -20 -22 -23 -15 -8 12 23 29 38 46 38 6 0 10 7 10 15 0 23
128 203 138 194 8 -9 -82 -221 -127 -299 -67 -114 -189 -228 -336 -315 -69
-40 -160 -94 -203 -119 -94 -55 -199 -148 -238 -211 -16 -25 -29 -42 -29 -37
0 16 55 94 98 140 26 26 43 47 39 47 -19 0 -111 -108 -155 -182 -49 -84 -92
-193 -92 -234 0 -13 -5 -26 -10 -29 -7 -4 -9 13 -5 49 3 31 7 82 10 114 15
155 74 288 210 467 54 72 104 134 112 138 7 5 10 13 7 19 -4 7 -2 8 4 4 11 -7
35 26 27 38 -3 3 -2 4 1 2 3 -3 26 21 52 52 25 31 72 85 104 118 99 102 99
107 0 59 -48 -24 -130 -62 -182 -85 -196 -86 -301 -162 -371 -272 -30 -47 -52
-61 -30 -20 14 26 14 35 1 27 -27 -16 53 121 131 226 57 77 108 122 211 183
234 139 395 254 578 412 74 64 172 141 216 171 88 59 274 170 287 172 5 1 -20
-34 -54 -76z m-929 -243 c-14 -11 -63 -36 -110 -57 -83 -36 -127 -62 -85 -49
94 27 306 68 313 61 2 -2 -49 -20 -114 -40 -252 -77 -281 -88 -333 -122 l-53
-35 31 45 c76 111 228 200 371 216 3 0 -6 -8 -20 -19z m4489 -52 c72 -35 215
-163 207 -185 -3 -8 -2 -12 3 -9 13 8 44 -43 37 -60 -3 -8 -2 -12 4 -9 5 3 25
-29 45 -71 41 -89 42 -93 16 -70 -11 10 -33 25 -49 34 -66 38 -102 64 -97 73
3 4 -11 17 -32 28 -21 11 -81 50 -134 88 -53 37 -117 83 -144 101 -26 18 -45
35 -42 38 7 7 138 -51 196 -86 53 -32 82 -40 88 -23 3 7 -3 10 -15 6 -11 -2
-23 0 -26 6 -5 7 -1 8 10 4 12 -4 15 -3 10 5 -4 7 -15 12 -24 12 -15 1 -172
141 -172 155 0 10 55 -7 119 -37z m823 -352 c23 2 25 0 15 -11 -6 -7 -14 -9
-17 -4 -3 5 -22 3 -43 -3 -20 -6 -34 -15 -31 -19 8 -14 -13 -19 -38 -10 -15 6
-17 10 -7 10 9 1 22 7 29 15 6 8 19 12 27 9 12 -5 15 -2 10 10 -5 14 -3 16 11
9 9 -5 29 -7 44 -6z m-27 -36 c-3 -5 -12 -10 -18 -10 -7 0 -6 4 3 10 19 12 23
12 15 0z m6 -88 c-6 -2 -11 -10 -11 -18 0 -9 -5 -12 -11 -8 -8 4 -8 9 0 17 15
15 14 30 -1 21 -7 -4 -8 -3 -4 5 6 9 11 9 23 -1 10 -8 11 -14 4 -16z m-90 -52
c28 -16 23 -32 -6 -18 -14 6 -25 15 -25 20 0 11 7 10 31 -2z m89 0 c20 -6 21
-8 5 -8 -11 0 -29 3 -40 8 -25 11 1 11 35 0z m-64 -59 c-4 -5 0 -12 6 -14 8
-3 6 -6 -4 -6 -18 -1 -24 10 -11 22 9 10 15 8 9 -2z m4 -50 c0 -5 -15 -13 -32
-17 -18 -4 -27 -9 -20 -11 6 -3 10 -9 7 -13 -3 -5 -13 -6 -23 -3 -14 5 -15 3
-5 -7 11 -12 18 -10 43 8 34 26 41 19 8 -9 -11 -11 -16 -19 -9 -19 7 0 10 -4
7 -9 -7 -11 23 -25 49 -22 12 1 16 -2 10 -6 -5 -5 -13 -12 -16 -16 -4 -5 -23
6 -43 23 -20 18 -36 28 -36 24 0 -5 -5 -2 -10 6 -5 8 -14 16 -20 16 -5 1 -13
2 -17 3 -8 1 37 41 49 42 4 1 12 2 17 3 5 0 13 4 17 9 10 10 24 9 24 -2z
m-1323 -161 c73 -77 182 -145 384 -243 129 -62 348 -294 333 -353 -3 -13 1
-33 10 -46 24 -34 21 -51 -9 -44 -16 4 -25 2 -25 -5 0 -7 12 -10 30 -7 39 6
39 -7 -1 -21 -17 -6 -28 -15 -25 -20 8 -12 46 -21 46 -10 0 5 -10 9 -22 10
-22 1 -22 1 2 8 30 9 36 -6 44 -107 2 -37 2 -57 0 -45 -4 16 -10 20 -22 16
-16 -6 -16 -6 0 10 19 19 14 44 -11 65 -14 11 -14 11 2 6 9 -3 17 -2 17 4 0 5
-9 12 -20 15 -12 3 -18 1 -14 -5 5 -7 -2 -9 -20 -6 -14 3 -26 1 -26 -3 0 -5
11 -9 24 -9 13 0 29 -7 36 -15 11 -13 9 -19 -11 -36 -13 -12 -23 -26 -21 -31
1 -5 -2 -7 -8 -3 -5 3 -10 12 -10 20 0 7 -7 16 -16 19 -9 3 -14 3 -12 -1 24
-49 33 -63 40 -63 5 0 7 -4 4 -9 -3 -5 1 -28 9 -51 8 -23 15 -48 15 -54 -1 -6
-14 24 -30 66 -15 42 -49 106 -75 142 -72 101 -148 162 -419 337 -60 39 -137
98 -171 132 -60 60 -123 152 -112 163 3 3 13 -8 22 -25 8 -17 18 -31 20 -31 3
0 -4 18 -15 40 -13 25 -25 38 -32 34 -7 -5 -9 -2 -5 9 3 9 -1 18 -11 22 -14 5
-14 7 -2 15 12 8 12 10 -3 16 -9 3 -17 13 -17 21 0 8 -8 27 -19 41 -10 15 -22
38 -26 52 -4 14 24 -16 62 -65 39 -50 101 -122 139 -161 74 -76 188 -159 204
-149 6 4 -6 18 -27 32 -63 42 -121 103 -195 208 -69 97 -158 250 -157 270 0 6
17 -10 37 -35 20 -25 69 -79 109 -120z m1363 96 c0 -2 -7 -7 -16 -10 -8 -3
-12 -2 -9 4 6 10 25 14 25 6z m-4665 -159 c-19 -143 -56 -280 -101 -369 -38
-76 -85 -142 -229 -318 -244 -299 -337 -726 -239 -1105 13 -50 -28 36 -52 110
-67 206 -90 460 -59 646 20 121 64 265 100 328 38 65 23 61 -32 -9 -115 -147
-164 -288 -164 -470 0 -80 6 -138 20 -190 10 -41 17 -77 16 -78 -6 -6 -53 152
-65 216 -14 78 -14 297 -1 382 42 261 155 410 466 615 65 43 137 95 160 115
79 70 80 68 21 -47 -42 -81 -68 -121 -97 -144 -47 -37 -53 -60 -6 -27 43 31
120 111 169 176 29 39 44 74 59 135 25 101 40 149 45 145 2 -2 -3 -52 -11
-111z m4664 69 c10 -12 8 -13 -8 -9 -12 3 -18 9 -15 14 7 12 10 11 23 -5z m29
-51 c4 -4 -6 -5 -21 -1 -17 4 -26 3 -23 -3 6 -10 -19 -9 -29 1 -7 7 -54 -2
-60 -11 -2 -4 9 -6 26 -5 16 1 29 -2 29 -8 0 -5 -10 -6 -21 -3 -15 5 -19 4
-14 -5 11 -18 -28 5 -46 26 -8 10 -9 15 -4 12 6 -4 26 -3 45 1 42 9 108 7 118
-4z m-43 -35 c3 -6 -1 -7 -9 -4 -18 7 -21 14 -7 14 6 0 13 -4 16 -10z m30 -38
c-8 -8 -25 10 -19 20 4 6 9 5 15 -3 4 -7 6 -15 4 -17z m-5 -22 c0 -5 -4 -10
-9 -10 -6 0 -13 5 -16 10 -3 6 1 10 9 10 9 0 16 -4 16 -10z m-20 -48 c0 -18
-37 -39 -54 -30 -10 6 -16 5 -16 -2 0 -5 -4 -10 -10 -10 -5 0 -10 7 -10 16 0
12 7 15 30 12 17 -3 34 0 37 5 3 6 1 7 -5 3 -7 -4 -12 -2 -12 3 0 6 9 11 20
11 11 0 20 -3 20 -8z m-100 -36 c0 -8 -5 -18 -10 -21 -6 -4 -8 -16 -4 -27 5
-17 3 -20 -12 -14 -15 6 -17 5 -6 -5 18 -19 15 -34 -4 -18 -8 7 -13 20 -11 30
3 12 0 16 -9 12 -8 -3 -14 0 -14 6 0 6 11 11 24 11 29 0 44 19 25 31 -11 7
-10 9 4 9 9 0 17 -6 17 -14z m60 -27 c0 -6 9 -9 20 -6 11 3 22 1 25 -3 8 -13
-6 -41 -17 -34 -6 4 -5 10 3 15 21 13 6 18 -21 7 -15 -6 -20 -12 -12 -15 6 -3
12 -9 12 -15 0 -7 -5 -6 -14 1 -11 9 -20 9 -35 2 -28 -16 -33 -14 -21 8 6 13
17 17 30 14 14 -4 20 0 20 11 0 9 -4 16 -10 16 -5 0 -10 -4 -10 -8 0 -4 -9 -8
-21 -8 -19 0 -19 1 -3 13 22 16 54 17 54 2z m-2105 -109 l30 -35 -32 29 c-18
17 -33 34 -33 40 0 5 1 7 3 5 1 -2 16 -20 32 -39z m2115 -104 c0 -2 -7 -7 -16
-10 -8 -3 -12 -2 -9 4 6 10 25 14 25 6z m-100 -17 c-12 -9 -11 -10 8 -6 12 3
20 1 16 -4 -7 -11 -44 -12 -44 -1 0 12 11 22 24 22 6 0 4 -5 -4 -11z m120 -31
c0 -21 -68 -349 -74 -355 -2 -2 -6 5 -9 17 -3 11 -2 18 2 16 9 -6 34 111 26
124 -3 6 -2 10 3 10 11 0 33 142 28 181 -2 16 2 26 11 26 7 0 13 -9 13 -19z
m-40 -34 c0 -2 -7 -4 -15 -4 -8 0 -15 4 -15 10 0 5 7 7 15 4 8 -4 15 -8 15
-10z m-2 -45 c3 -11 1 -11 -6 -1 -5 7 -17 10 -28 6 -16 -5 -16 -4 -4 5 18 13
32 10 38 -10z m-545 -57 c10 -23 17 -50 17 -60 -1 -9 -9 6 -19 33 -10 28 -22
59 -26 70 -5 13 -5 17 2 10 6 -5 17 -29 26 -53z m-4009 -203 c-35 -238 -35
-250 -31 -479 4 -226 6 -239 36 -350 18 -63 44 -146 57 -185 29 -81 113 -261
144 -308 l22 -32 -31 35 c-29 32 -28 29 9 -30 22 -35 38 -70 35 -78 -2 -7 -1
-10 5 -7 5 3 14 -4 20 -16 7 -11 14 -19 17 -16 2 3 -6 22 -19 44 -37 58 -40
63 -34 63 4 0 40 -56 84 -130 l14 -25 -21 25 c-35 43 -23 13 34 -82 30 -50 55
-95 55 -100 0 -4 -17 -8 -39 -8 -30 0 -38 -4 -37 -16 0 -9 -5 -18 -12 -20 -7
-1 -8 0 -2 3 16 7 12 23 -6 23 -10 0 -14 6 -11 14 4 9 0 12 -13 9 -10 -3 -21
0 -24 5 -4 6 3 8 16 4 14 -3 19 -2 14 6 -11 18 0 14 20 -5 13 -13 19 -14 22
-5 2 6 10 12 18 12 18 0 18 9 -3 51 -10 19 -25 34 -33 34 -8 -1 -21 4 -29 9
-11 8 -13 8 -8 -1 11 -18 -16 -22 -33 -5 -11 12 -12 16 -2 20 6 2 12 8 12 13
0 6 -5 7 -11 4 -6 -4 -23 3 -37 16 -15 13 -21 17 -14 9 15 -18 16 -34 0 -24
-7 4 -8 3 -4 -4 4 -7 14 -12 22 -12 17 0 18 -12 2 -29 -11 -11 -10 -13 4 -8
10 3 20 1 24 -4 4 -7 -3 -9 -17 -7 -14 2 -23 9 -21 17 6 30 -34 39 -64 15 -18
-14 -18 -15 5 -4 15 8 27 8 33 2 7 -7 3 -12 -11 -17 -12 -3 -21 -11 -21 -17 0
-5 7 -8 15 -4 8 3 15 0 15 -7 0 -9 3 -8 9 1 6 11 10 10 15 -3 5 -14 9 -15 21
-5 8 7 28 13 43 15 16 1 33 4 38 8 6 3 16 1 24 -4 13 -9 13 -10 0 -6 -8 2 -23
-5 -32 -16 -10 -11 -18 -15 -18 -9 0 15 -47 16 -55 1 -4 -6 -13 -8 -21 -5 -18
7 -18 1 2 -30 12 -18 20 -22 29 -14 9 7 16 6 24 -4 10 -12 9 -13 -9 -9 -16 4
-19 2 -14 -11 3 -9 10 -13 15 -10 5 3 8 0 7 -8 -2 -8 5 -12 17 -10 13 2 16 0
8 -6 -9 -6 -3 -21 23 -57 20 -28 40 -49 44 -48 5 2 6 -5 3 -14 -4 -10 -2 -14
5 -9 6 3 14 1 18 -5 4 -8 3 -9 -4 -5 -7 4 -12 3 -12 -3 0 -5 4 -12 9 -15 20
-13 121 -249 121 -284 0 -9 -12 16 -25 56 -51 149 -135 287 -285 466 -150 179
-297 415 -286 458 3 13 3 17 0 10 -8 -18 -33 18 -40 56 -3 15 -11 34 -18 42
-8 8 -21 29 -30 45 l-17 30 7 -40 c4 -22 7 -50 7 -62 -1 -13 3 -20 8 -17 5 3
6 -8 3 -25 -4 -20 2 -46 19 -83 13 -29 32 -78 42 -108 10 -30 24 -68 33 -85
l15 -30 -23 20 c-40 35 -138 163 -181 235 -46 78 -123 250 -115 258 5 5 26
-41 26 -57 0 -4 7 -16 16 -27 8 -10 13 -13 9 -6 -12 23 -43 146 -50 197 -3 28
-9 66 -11 85 -3 19 -14 89 -25 155 -20 128 -23 186 -10 250 9 47 11 43 36
-105 14 -81 51 -230 58 -230 1 0 2 60 2 133 1 121 4 143 38 267 66 241 62 238
58 58 -2 -88 0 -190 5 -226 l8 -67 8 65 c5 36 9 74 10 85 4 61 37 267 43 273
5 4 5 -2 1 -12 -16 -44 40 -389 89 -557 34 -114 134 -362 154 -382 6 -6 -3 27
-20 73 -75 207 -113 441 -106 655 3 77 7 151 10 165 2 14 8 48 12 75 15 101
73 330 81 322 2 -2 -12 -113 -32 -248z m1646 233 c0 -5 -18 -19 -41 -31 -34
-20 -49 -22 -95 -16 -76 9 -74 20 4 20 47 0 74 5 92 18 27 19 40 22 40 9z
m2765 -2 c3 -5 -3 -10 -15 -10 -12 0 -18 5 -15 10 3 6 10 10 15 10 5 0 12 -4
15 -10z m73 -22 c-7 -4 -29 -8 -48 -9 -33 -2 -32 -2 10 -9 25 -4 35 -8 22 -8
-13 -1 -20 -6 -17 -12 4 -6 16 -8 28 -5 19 5 19 4 5 -5 -13 -8 -26 -5 -55 11
-50 28 -49 27 -25 36 29 11 96 12 80 1z m52 8 c0 -2 -7 -7 -16 -10 -8 -3 -12
-2 -9 4 6 10 25 14 25 6z m-1026 -109 c93 -132 178 -332 202 -477 17 -105 17
-176 0 -260 l-14 -65 3 62 c2 34 6 66 10 72 9 15 3 131 -6 131 -5 0 -6 7 -2
16 3 9 0 20 -8 25 -8 5 -9 9 -2 9 6 0 9 9 6 20 -3 11 -12 20 -20 20 -13 0 -13
3 -3 15 17 21 4 32 -20 17 -11 -7 -20 -9 -21 -5 0 5 -2 25 -4 46 -10 123 -69
265 -173 425 -34 52 9 10 52 -51z m936 35 c17 -7 20 -11 8 -11 -9 -1 -20 4
-23 9 -8 13 -43 3 -67 -18 -10 -8 -18 -10 -18 -4 0 6 6 13 13 15 9 4 8 8 -3
16 -20 14 55 8 90 -7z m-1260 -120 c17 -40 44 -123 60 -185 l30 -112 -6 95
c-3 52 -14 139 -23 194 -17 96 -17 98 1 75 25 -32 123 -206 153 -272 14 -29
29 -76 35 -103 5 -27 17 -78 25 -114 71 -305 70 -410 -6 -628 -33 -93 -187
-418 -194 -410 -3 3 29 73 71 157 42 84 73 159 70 167 -3 8 -2 13 2 10 5 -3
13 8 19 25 8 21 8 29 0 29 -6 0 -4 6 5 13 38 28 88 276 61 302 -10 10 -10 14
0 18 6 2 8 8 4 13 -4 5 -12 2 -17 -5 -4 -8 -17 -12 -28 -9 -14 4 -19 2 -16 -7
3 -7 13 -11 23 -8 9 2 22 -2 29 -9 9 -11 3 -13 -28 -10 -38 4 -43 -3 -30 -38
1 -3 2 -8 1 -12 -1 -10 23 -10 32 -1 4 3 -1 11 -10 18 -11 8 -13 14 -5 19 7 4
12 2 12 -4 0 -7 6 -10 14 -7 9 4 12 0 9 -13 -3 -10 -12 -21 -20 -24 -18 -7
-63 3 -63 15 0 5 8 6 18 2 9 -3 14 -3 11 1 -9 9 -49 16 -49 8 1 -13 25 -37 50
-50 l25 -12 -25 6 c-42 11 -55 10 -55 -6 0 -8 -4 -19 -10 -23 -6 -5 -4 -7 5
-4 8 2 13 12 12 22 -3 15 -1 17 11 7 7 -6 16 -10 19 -7 3 3 11 -1 18 -10 11
-13 10 -14 -4 -9 -20 8 -66 -14 -66 -32 0 -6 -7 -15 -15 -18 -13 -4 -14 -10
-5 -26 9 -16 8 -20 -5 -20 -12 0 -13 -4 -6 -19 6 -10 7 -22 3 -26 -11 -10 28
-34 46 -28 14 4 15 3 3 -5 -9 -7 -21 -7 -32 -1 -12 6 -19 4 -23 -7 -4 -12 -2
-15 9 -11 8 4 17 2 20 -3 4 -6 -1 -10 -10 -10 -11 0 -15 -5 -11 -15 3 -8 1
-15 -4 -15 -6 0 -10 -4 -10 -10 0 -5 7 -10 16 -10 12 0 14 -3 6 -12 -6 -7 -15
-29 -20 -48 -8 -28 -10 -10 -10 91 0 131 -19 319 -32 319 -4 0 -13 -35 -20
-77 -34 -212 -101 -450 -122 -437 -6 4 -7 9 -1 13 14 9 44 102 37 113 -4 6 0
14 7 19 11 7 11 9 -2 9 -23 0 -30 -11 -18 -27 9 -10 7 -13 -9 -13 -12 0 -25 7
-30 16 -6 11 -16 13 -35 9 -15 -4 -24 -11 -22 -16 3 -4 13 -5 23 -2 15 6 15 5
3 -10 -12 -15 -12 -17 4 -11 13 5 16 4 11 -4 -4 -8 3 -16 21 -23 17 -7 23 -13
15 -16 -7 -3 -21 2 -31 11 -10 9 -20 13 -24 10 -3 -3 -11 3 -18 14 -7 11 -18
18 -25 15 -6 -2 -15 0 -19 6 -3 6 -11 11 -16 11 -6 0 -8 -4 -4 -9 10 -17 -15
-23 -30 -7 -20 20 -19 26 8 27 17 1 18 2 4 6 -10 3 -24 -1 -32 -7 -17 -14 -7
-27 40 -53 l30 -17 -28 5 c-16 2 -35 9 -43 16 -8 7 -14 7 -14 1 0 -18 51 -44
76 -38 14 4 24 2 24 -4 0 -13 -46 -13 -70 0 -11 6 -21 6 -24 1 -3 -5 4 -11 15
-14 20 -5 18 -27 -2 -27 -6 0 -7 5 -4 10 3 6 -1 10 -9 10 -8 0 -20 -9 -27 -21
-9 -18 -9 -20 7 -11 9 5 25 7 34 5 10 -3 21 0 24 6 4 6 17 11 29 10 20 -1 20
-2 -3 -9 -16 -5 -19 -8 -8 -9 9 -1 19 -5 22 -10 3 -4 -6 -6 -19 -3 -14 2 -25
0 -25 -6 0 -7 -18 -9 -47 -5 -40 4 -45 3 -35 -10 15 -18 6 -27 -27 -27 -24 0
-24 0 -5 -16 19 -15 18 -15 -3 -11 -29 6 -29 -7 -1 -27 12 -9 18 -16 14 -16
-5 0 -17 7 -27 16 -16 14 -18 14 -29 -6 -10 -19 -10 -21 7 -16 13 4 28 -3 49
-25 l29 -32 -27 18 c-16 9 -28 21 -28 25 0 5 -9 6 -20 3 -23 -6 -43 -36 -32
-48 4 -5 2 -5 -5 -1 -6 3 -14 2 -18 -4 -3 -5 -1 -10 5 -10 6 0 8 -5 4 -11 -4
-7 -10 -7 -16 -1 -6 6 12 52 50 128 32 66 76 164 96 219 20 55 43 114 50 130
18 41 48 146 43 151 -4 4 -6 0 -58 -111 -91 -197 -259 -411 -463 -591 -49 -44
-101 -90 -115 -103 -56 -51 -125 -104 -102 -78 30 33 17 36 -17 5 -14 -13 -22
-17 -18 -10 7 11 -11 16 -51 15 -7 -1 -13 3 -13 8 0 11 7 11 48 0 31 -9 33 -8
28 12 -3 12 -3 16 0 10 8 -18 27 -16 21 1 -3 8 1 20 8 26 8 7 12 17 8 23 -3 6
-1 7 5 3 7 -4 12 -2 12 3 0 6 -7 11 -16 11 -10 0 -14 6 -11 14 7 19 -22 30
-39 15 -8 -6 -14 -8 -14 -5 0 11 63 61 73 58 5 -1 6 1 3 6 -3 5 6 20 21 33 14
13 23 18 18 10 -5 -9 -4 -12 3 -7 7 4 17 4 24 0 8 -5 6 -10 -8 -16 -19 -8 -19
-8 0 -5 30 3 29 22 -1 36 -20 9 -23 15 -14 20 7 5 21 6 31 4 10 -3 21 0 24 6
4 6 16 11 27 11 11 0 17 -5 14 -10 -4 -6 -11 -8 -16 -5 -5 4 -16 -1 -25 -9 -8
-9 -11 -16 -5 -16 5 0 13 5 16 10 4 6 10 8 15 5 5 -3 19 -1 32 4 12 5 27 9 32
9 10 0 26 23 26 37 0 6 -5 3 -10 -5 -5 -8 -10 -11 -10 -6 0 5 -10 1 -21 -10
-22 -19 -22 -19 -9 5 10 19 10 22 -1 15 -7 -4 -24 -9 -37 -10 -13 -2 -30 -8
-38 -15 -9 -8 -14 -8 -14 -1 0 20 -37 33 -50 18 -9 -12 -7 -13 12 -9 22 5 22
5 4 -9 -17 -13 -23 -13 -48 0 -16 8 -32 12 -35 9 -3 -4 6 -9 21 -13 33 -8 33
-22 0 -34 -14 -6 -22 -14 -19 -20 3 -5 -3 -10 -14 -10 -12 0 -21 -4 -21 -10 0
-5 -6 -10 -12 -10 -7 0 -24 -12 -38 -27 -23 -24 -23 -25 -3 -15 38 21 37 13
-3 -22 -31 -27 -42 -32 -54 -23 -12 9 -13 9 -3 -3 10 -10 3 -23 -34 -64 -25
-28 -66 -81 -91 -118 -48 -73 -68 -92 -33 -32 12 20 19 39 17 42 -3 3 2 11 12
19 13 11 14 15 3 20 -9 4 -10 7 -2 13 16 9 4 37 -20 43 -10 3 -17 1 -13 -4 3
-5 -1 -9 -8 -10 -7 -1 -2 -4 12 -8 24 -7 24 -8 -7 -12 -18 -3 -29 -1 -26 4 3
5 -4 6 -16 2 -12 -4 -21 -2 -21 4 0 6 9 11 19 11 11 0 23 5 26 10 4 6 -6 10
-23 10 -19 0 -32 -6 -36 -17 -9 -23 7 -36 48 -37 43 -2 55 -11 18 -14 -15 -1
-40 3 -55 9 -23 10 -31 10 -38 -2 -5 -8 -7 -20 -4 -26 2 -7 -3 -13 -11 -13
-22 0 67 165 132 244 28 34 112 114 185 176 155 133 259 235 345 340 135 166
176 258 255 565 15 59 17 63 14 25 -2 -25 -8 -62 -14 -82 -6 -25 -5 -36 1 -32
12 8 3 -77 -23 -206 -10 -52 -21 -110 -24 -128 -5 -30 -20 -63 -62 -135 -6
-11 -17 -23 -24 -28 -8 -4 -11 -10 -9 -13 9 -9 35 20 86 94 138 202 206 439
208 720 1 80 -3 163 -7 185 l-8 40 35 -55 c99 -153 161 -369 154 -532 -2 -45
1 -73 6 -68 11 11 50 187 67 300 11 81 8 377 -6 440 -5 24 -5 24 4 3 10 -23
19 -63 20 -95 1 -10 5 -18 9 -18 11 0 -3 95 -23 167 -31 106 -10 86 45 -45z
m1280 72 c0 -2 -7 -1 -15 2 -24 10 -17 -12 8 -24 15 -7 17 -11 6 -11 -8 -1
-25 10 -37 24 -12 14 -17 25 -11 25 5 0 7 5 3 11 -3 6 5 3 20 -6 14 -10 26
-19 26 -21z m-433 -21 c-3 -10 -5 -4 -5 12 0 17 2 24 5 18 2 -7 2 -21 0 -30z
m-5060 -5 c-3 -7 -5 -2 -5 12 0 14 2 19 5 13 2 -7 2 -19 0 -25z m5420 26 c-3
-3 -12 -4 -19 -1 -8 3 -5 6 6 6 11 1 17 -2 13 -5z m18 -14 c-3 -5 0 -10 7 -10
11 0 10 -2 0 -9 -11 -7 -11 -9 2 -14 9 -4 16 -11 16 -17 0 -6 -10 -1 -22 10
-17 15 -31 20 -51 16 -38 -8 -25 11 16 23 18 5 33 10 35 10 2 1 0 -3 -3 -9z
m-8 -60 c3 -10 2 -11 -4 -4 -4 7 -17 14 -28 17 -16 5 -15 5 4 4 14 -1 26 -9
28 -17z m-57 -10 c0 -5 -4 -10 -10 -10 -5 0 -10 5 -10 10 0 6 5 10 10 10 6 0
10 -4 10 -10z m26 -5 c-3 -9 0 -15 9 -15 7 0 16 -4 19 -8 3 -5 -8 -6 -25 -4
-22 3 -27 7 -19 17 5 6 7 15 3 18 -3 4 -1 7 6 7 8 0 11 -7 7 -15z m103 -12 c3
-2 -9 -3 -27 -1 -18 1 -32 6 -32 10 0 8 49 0 59 -9z m-4279 -76 c-18 -116 13
-370 69 -557 50 -171 134 -356 214 -475 110 -164 206 -273 137 -155 -17 28
-30 57 -30 65 0 8 -4 15 -8 15 -4 0 -9 11 -10 25 -1 14 -11 52 -22 84 -12 37
-22 100 -25 163 l-6 103 36 -120 c57 -194 141 -344 269 -483 36 -40 64 -77 61
-82 -4 -6 0 -10 8 -10 19 0 59 -44 50 -55 -5 -4 -3 -5 4 -2 6 4 43 -22 85 -61
90 -85 161 -146 221 -192 25 -19 49 -42 52 -50 4 -9 -3 -7 -17 6 -21 19 -27
20 -68 8 -25 -6 -37 -12 -28 -13 9 -1 19 -5 23 -11 5 -8 -26 -1 -75 17 -8 4
-22 5 -32 4 -9 -1 -19 3 -23 9 -8 13 20 13 63 1 18 -6 30 -6 27 -1 -3 4 5 6
17 3 14 -4 20 -2 15 3 -5 5 -12 9 -15 9 -32 3 -82 18 -82 25 0 5 8 14 18 19
15 9 15 10 0 11 -20 0 -78 32 -78 43 0 11 18 9 25 -3 4 -6 16 -8 28 -4 19 6
20 5 8 -10 -11 -13 -11 -16 0 -16 31 0 40 16 20 34 -11 10 -24 15 -29 12 -13
-8 -67 10 -65 22 1 5 -4 13 -12 16 -13 5 -13 2 0 -24 14 -26 13 -29 -3 -33
-13 -4 -12 -5 4 -6 22 -1 48 -24 38 -33 -3 -3 3 -5 13 -4 22 1 25 -35 3 -41
-13 -4 -13 -3 0 6 17 12 18 12 -35 16 -22 1 -32 0 -22 -2 13 -3 16 -10 11 -25
-5 -17 -3 -19 18 -14 12 3 17 3 11 0 -18 -8 -16 -25 1 -18 8 3 17 1 21 -5 4
-7 -1 -8 -12 -4 -17 6 -16 5 1 -16 11 -12 26 -19 34 -16 9 3 12 0 9 -9 -3 -8
0 -16 6 -19 7 -3 13 5 13 19 1 15 -5 26 -18 30 -11 3 -17 8 -15 11 3 2 16 -1
28 -8 21 -11 32 -13 77 -18 7 0 10 -6 6 -12 -4 -8 -9 -8 -17 0 -15 15 -30 14
-21 -1 6 -10 4 -10 -8 0 -20 16 -35 -2 -19 -21 5 -7 7 -18 3 -24 -5 -8 -59 38
-149 127 -78 77 -148 140 -156 140 -7 0 -22 9 -32 20 -10 12 -24 19 -31 16 -7
-3 -18 3 -26 12 -12 16 -11 16 7 3 11 -8 -2 7 -28 32 -54 52 -77 64 -32 17 26
-27 25 -42 -1 -22 -5 4 6 -8 26 -26 19 -17 34 -37 32 -42 -1 -6 1 -9 5 -8 20
6 151 -142 187 -212 31 -58 35 -71 18 -56 -12 11 -22 25 -22 33 0 8 -4 11 -10
8 -5 -3 -7 0 -4 9 6 16 -24 36 -53 36 -15 -1 -13 -4 7 -16 14 -8 17 -13 8 -10
-10 3 -28 1 -40 -4 -21 -9 -21 -10 -3 -9 41 2 56 -1 49 -12 -3 -6 -16 -8 -28
-5 -20 5 -20 4 2 -14 13 -10 31 -17 40 -14 14 5 14 4 2 -4 -8 -6 -19 -8 -25
-4 -5 3 -4 -2 4 -11 7 -9 23 -17 34 -17 11 0 17 -3 13 -7 -18 -19 -39 -5 -94
60 -159 189 -235 278 -296 341 -36 38 -63 73 -59 79 3 5 2 7 -4 4 -22 -14
-155 148 -239 289 -186 315 -227 597 -139 940 35 132 84 278 92 270 2 -2 -1
-33 -7 -69z m4270 53 c0 -5 -2 -10 -4 -10 -3 0 -8 5 -11 10 -3 6 -1 10 4 10 6
0 11 -4 11 -10z m-473 -6 c-3 -3 -12 -4 -19 -1 -8 3 -5 6 6 6 11 1 17 -2 13
-5z m433 -25 c0 -6 -4 -7 -10 -4 -5 3 -10 11 -10 16 0 6 5 7 10 4 6 -3 10 -11
10 -16z m60 -100 c-28 -101 -49 -158 -38 -104 2 11 -3 25 -12 32 -13 10 -13
11 4 10 16 -2 32 33 46 100 0 1 -8 0 -17 -4 -13 -4 -12 -1 3 10 12 9 24 31 28
48 3 18 9 30 12 27 3 -4 -9 -57 -26 -119z m-483 86 c0 -8 -4 -12 -9 -9 -5 3
-6 10 -3 15 9 13 12 11 12 -6z m478 -15 c-3 -5 -12 -10 -18 -10 -7 0 -6 4 3
10 19 12 23 12 15 0z m-41 -21 c5 -5 -4 -5 -21 0 -18 5 -34 7 -37 3 -3 -3 -6
0 -6 7 0 12 48 5 64 -10z m-437 -5 c-3 -3 -12 -4 -19 -1 -8 3 -5 6 6 6 11 1
17 -2 13 -5z m32 -46 c-1 -55 -5 -50 -11 15 -2 20 0 37 4 37 4 0 7 -24 7 -52z
m358 16 c-3 -3 -12 -4 -19 -1 -8 3 -5 6 6 6 11 1 17 -2 13 -5z m47 -26 c-6 -9
-54 -6 -54 3 0 3 13 6 29 5 16 -1 27 -4 25 -8z m3 -34 c-3 -3 -12 -4 -19 -1
-8 3 -5 6 6 6 11 1 17 -2 13 -5z m-426 -38 c9 5 10 -6 6 -41 -4 -26 -8 -60 -8
-74 -1 -14 -5 -3 -9 24 -3 28 -10 68 -13 90 -6 31 -5 35 3 17 6 -14 14 -20 21
-16z m290 20 c-10 -12 -8 -16 11 -22 13 -4 30 -7 38 -6 11 2 11 0 -2 -8 -13
-8 -24 -7 -40 2 -13 7 -24 13 -26 14 -7 3 11 34 20 34 6 0 6 -6 -1 -14z m89
-46 c0 -5 -2 -10 -4 -10 -3 0 -8 5 -11 10 -3 6 -1 10 4 10 6 0 11 -4 11 -10z
m-25 -10 c3 -5 -1 -10 -9 -10 -9 0 -16 5 -16 10 0 6 4 10 9 10 6 0 13 -4 16
-10z m72 -32 c-3 -8 -6 -5 -6 6 -1 11 2 17 5 13 3 -3 4 -12 1 -19z m-92 2 c3
-6 -1 -7 -9 -4 -18 7 -21 14 -7 14 6 0 13 -4 16 -10z m-21 -18 c3 -5 -9 -9
-27 -9 -26 -1 -28 1 -12 7 27 11 33 12 39 2z m-683 -39 c-9 -16 -10 -14 -11
12 0 21 3 26 11 18 8 -8 8 -16 0 -30z m669 7 c0 -5 -8 -10 -17 -10 -15 0 -16
2 -3 10 19 12 20 12 20 0z m100 -37 c-11 -17 -11 -17 -6 0 3 10 7 26 7 35 1
15 2 15 6 0 2 -10 -1 -25 -7 -35z m-200 12 c-7 -9 -15 -13 -17 -11 -7 7 7 26
19 26 6 0 6 -6 -2 -15z m50 -27 c0 -4 -4 -8 -9 -8 -6 0 -12 4 -15 8 -3 5 1 9
9 9 8 0 15 -4 15 -9z m-606 -23 c-4 -8 -8 -15 -10 -15 -2 0 -4 7 -4 15 0 8 4
15 10 15 5 0 7 -7 4 -15z m480 -81 c-18 -53 -36 -99 -40 -103 -4 -3 -5 1 -2 9
3 8 18 54 34 103 15 48 31 87 35 87 3 0 -9 -43 -27 -96z m256 51 c-16 -47 -23
-40 -9 9 6 21 13 36 16 33 3 -3 0 -22 -7 -42z m-125 15 c3 -5 -1 -10 -10 -10
-9 0 -13 5 -10 10 3 6 8 10 10 10 2 0 7 -4 10 -10z m-38 -6 c-3 -3 -12 -4 -19
-1 -8 3 -5 6 6 6 11 1 17 -2 13 -5z m-537 -18 c0 -2 -7 -7 -16 -10 -8 -3 -12
-2 -9 4 6 10 25 14 25 6z m-2130 -36 c19 -6 78 -20 130 -31 117 -25 277 -100
337 -158 99 -96 127 -204 81 -319 -56 -136 -208 -360 -268 -392 -18 -10 -18
-8 -3 36 12 36 19 45 34 41 11 -3 17 -1 14 3 -3 5 3 10 12 12 15 3 14 6 -6 17
-21 12 -23 11 -18 -3 4 -10 1 -16 -8 -16 -11 0 -13 7 -7 33 14 62 7 318 -11
399 -9 42 -17 80 -17 83 0 3 -4 4 -9 1 -5 -3 -4 -29 1 -58 18 -94 4 -242 -29
-332 l-30 -78 1 78 c0 44 -3 111 -6 149 -4 39 -8 74 -8 78 0 5 -4 6 -8 3 -5
-3 -10 -31 -11 -63 -2 -67 -21 -158 -56 -263 -30 -88 -139 -296 -154 -293 -6
2 -8 -3 -6 -10 2 -6 -6 -25 -19 -40 l-23 -28 -43 123 c-57 161 -77 208 -101
234 -11 12 -19 26 -17 31 2 6 -17 38 -42 73 -25 34 -45 67 -45 74 0 6 -7 11
-15 11 -8 0 -14 8 -14 18 1 9 -3 14 -9 10 -6 -4 -8 0 -4 11 4 10 3 15 -3 11
-6 -4 -17 9 -26 27 -48 102 -54 102 -48 1 6 -108 6 -107 16 -120 6 -7 7 -21 4
-30 -4 -10 -4 -14 0 -10 6 6 67 -106 68 -123 0 -3 10 -13 23 -24 13 -10 22
-21 19 -23 -10 -10 -146 99 -202 160 -105 117 -147 240 -129 382 6 52 12 64
58 112 83 88 207 141 457 196 83 19 97 19 140 7z m2087 -37 c-3 -10 -5 -2 -5
17 0 19 2 27 5 18 2 -10 2 -26 0 -35z m648 7 c3 -5 1 -10 -4 -10 -6 0 -11 5
-11 10 0 6 2 10 4 10 3 0 8 -4 11 -10z m45 -65 c-10 -27 -19 -45 -20 -40 0 15
34 108 37 98 2 -4 -6 -30 -17 -58z m-693 3 c-3 -8 -6 -5 -6 6 -1 11 2 17 5 13
3 -3 4 -12 1 -19z m436 -61 c-8 -10 -46 -102 -48 -117 -1 -3 -13 -27 -29 -55
-33 -61 -30 -51 30 94 27 63 50 109 52 102 2 -6 0 -17 -5 -24z m-399 -81 c-3
-21 -8 -35 -11 -32 -2 2 -1 20 3 40 3 21 8 35 11 32 2 -2 1 -20 -3 -40z
m-4134 -40 c0 -26 -6 -18 -14 19 -5 22 -4 26 4 15 5 -8 10 -24 10 -34z m4547
28 c-3 -3 -12 -4 -19 -1 -8 3 -5 6 6 6 11 1 17 -2 13 -5z m-437 -71 c-11 -17
-11 -17 -6 0 3 10 6 24 7 30 0 9 2 9 5 0 3 -7 0 -20 -6 -30z m517 31 c-3 -3
-12 -4 -19 -1 -8 3 -5 6 6 6 11 1 17 -2 13 -5z m-4620 -36 c-3 -8 -6 -5 -6 6
-1 11 2 17 5 13 3 -3 4 -12 1 -19z m4682 -37 c-12 -28 -24 -50 -26 -48 -2 2 6
27 18 56 12 28 24 50 26 48 2 -2 -6 -27 -18 -56z m-52 43 c-3 -3 -12 -4 -19
-1 -8 3 -5 6 6 6 11 1 17 -2 13 -5z m-107 -24 c0 -5 -5 -10 -11 -10 -5 0 -7 5
-4 10 3 6 8 10 11 10 2 0 4 -4 4 -10z m-441 -49 c-7 -23 -16 -41 -20 -41 -4 0
-1 20 8 46 19 55 29 52 12 -5z m-248 0 c-7 -5 -10 -14 -7 -20 4 -6 2 -11 -3
-11 -12 0 -15 23 -4 33 3 4 11 7 17 7 6 0 5 -4 -3 -9z m66 3 c-3 -3 -12 -4
-19 -1 -8 3 -5 6 6 6 11 1 17 -2 13 -5z m-3880 -26 c-3 -8 -6 -5 -6 6 -1 11 2
17 5 13 3 -3 4 -12 1 -19z m3873 -10 c0 -6 -6 -5 -15 2 -8 7 -15 14 -15 16 0
2 7 1 15 -2 8 -4 15 -11 15 -16z m510 -7 c-6 -12 -8 -27 -4 -33 4 -7 3 -8 -4
-4 -14 8 -36 -40 -26 -56 4 -6 2 -8 -4 -4 -9 5 -29 -32 -23 -43 2 -2 -2 -7 -7
-10 -6 -3 -28 -40 -50 -81 -40 -76 -64 -121 -109 -197 -14 -24 -22 -43 -19
-43 3 0 -6 -12 -19 -26 -14 -15 -25 -31 -25 -36 0 -9 -99 -158 -105 -158 -2 0
45 80 104 178 58 97 148 259 200 360 51 101 95 181 98 178 3 -2 0 -14 -7 -25z
m-601 -42 c-8 -5 -18 -9 -24 -9 -5 1 -2 5 8 11 12 7 16 18 12 32 -5 21 -4 20
7 -1 9 -19 9 -25 -3 -33z m817 -26 c-14 -26 -25 -45 -26 -42 0 13 42 101 47
96 2 -3 -7 -27 -21 -54z m-795 14 c-10 -9 -11 -8 -5 6 3 10 9 15 12 12 3 -3 0
-11 -7 -18z m39 13 c0 -5 -2 -10 -4 -10 -3 0 -8 5 -11 10 -3 6 -1 10 4 10 6 0
11 -4 11 -10z m-65 -30 c-3 -5 -11 -10 -16 -10 -6 0 -7 5 -4 10 3 6 11 10 16
10 6 0 7 -4 4 -10z m788 -65 c-3 -9 -8 -14 -10 -11 -3 3 -2 9 2 15 9 16 15 13
8 -4z m-20 -40 c-3 -9 -8 -14 -10 -11 -3 3 -2 9 2 15 9 16 15 13 8 -4z m-758
-5 c3 -6 -1 -7 -9 -4 -18 7 -21 14 -7 14 6 0 13 -4 16 -10z m-3558 -52 c-3 -8
-6 -5 -6 6 -1 11 2 17 5 13 3 -3 4 -12 1 -19z m3237 -39 c-3 -5 1 -9 8 -9 9 0
9 -3 -2 -10 -11 -7 -18 -5 -26 5 -6 8 -17 15 -23 15 -7 0 -10 4 -7 9 3 4 17 6
31 4 13 -3 22 -9 19 -14z m1024 -14 c-6 -14 -13 -23 -15 -21 -5 5 15 46 22 46
3 0 -1 -11 -7 -25z m-2773 -25 c10 -11 16 -20 13 -20 -3 0 -13 9 -23 20 -10
11 -16 20 -13 20 3 0 13 -9 23 -20z m2020 10 c3 -5 1 -10 -4 -10 -6 0 -11 5
-11 10 0 6 2 10 4 10 3 0 8 -4 11 -10z m-250 -19 c3 -5 0 -13 -6 -17 -7 -4 -9
-3 -5 4 3 5 0 13 -6 15 -9 4 -10 6 -1 6 6 1 14 -3 18 -8z m-15 -41 c0 -5 -2
-10 -4 -10 -3 0 -8 5 -11 10 -3 6 -1 10 4 10 6 0 11 -4 11 -10z m50 -4 c0 -2
-7 -7 -16 -10 -8 -3 -12 -2 -9 4 6 10 25 14 25 6z m-136 -50 c-3 -8 -14 -12
-27 -9 -18 4 -19 3 -7 -6 12 -9 11 -11 -7 -11 -16 0 -21 -5 -18 -19 3 -15 0
-18 -13 -14 -10 4 -12 8 -4 11 7 2 10 8 6 13 -6 10 13 33 36 42 26 10 40 7 34
-7z m836 -12 c0 -2 -9 -4 -20 -4 -11 0 -20 4 -20 9 0 5 9 7 20 4 11 -3 20 -7
20 -9z m-719 -27 c-10 -9 -11 -8 -5 6 3 10 9 15 12 12 3 -3 0 -11 -7 -18z
m-81 -7 c-8 -5 -19 -10 -25 -10 -5 0 -3 5 5 10 8 5 20 10 25 10 6 0 3 -5 -5
-10z m30 -20 c0 -5 -5 -10 -11 -10 -5 0 -7 5 -4 10 3 6 8 10 11 10 2 0 4 -4 4
-10z m-205 -50 c-3 -5 -12 -10 -18 -10 -7 0 -6 4 3 10 19 12 23 12 15 0z
m1095 -20 c-6 -11 -13 -20 -16 -20 -2 0 0 9 6 20 6 11 13 20 16 20 2 0 0 -9
-6 -20z m-885 0 c-3 -5 -14 -10 -23 -9 -14 0 -13 2 3 9 27 11 27 11 20 0z
m-275 -60 c0 -5 -7 -7 -15 -4 -10 4 -15 0 -15 -13 0 -11 -9 -28 -21 -39 -26
-23 -48 -65 -42 -80 2 -7 -4 -11 -14 -10 -10 0 -18 -3 -17 -9 0 -5 -24 -35
-54 -65 l-55 -55 40 50 c79 98 153 200 153 210 0 16 22 35 32 29 4 -3 8 -9 8
-14z m219 -29 c-13 -17 -27 -31 -31 -31 -5 0 3 12 17 27 14 15 25 32 25 37 0
5 3 7 6 3 3 -3 -4 -19 -17 -36z m-749 -17 c0 -8 -19 -13 -24 -6 -3 5 1 9 9 9
8 0 15 -2 15 -3z m-1905 -35 c-8 -12 -35 -12 -35 0 0 11 22 20 33 14 4 -2 5
-9 2 -14z m-940 -9 c3 -5 -1 -10 -10 -10 -9 0 -13 5 -10 10 3 6 8 10 10 10 2
0 7 -4 10 -10z m60 -17 c8 4 15 3 15 -2 0 -13 -31 -18 -65 -10 -23 5 -25 7 -8
8 17 1 21 6 17 19 -5 15 -4 15 10 -2 8 -10 22 -16 31 -13z m792 21 c-3 -3 -12
-4 -19 -1 -8 3 -5 6 6 6 11 1 17 -2 13 -5z m2681 -28 c-13 -19 -24 -33 -26
-31 -5 4 37 65 44 65 2 0 -6 -15 -18 -34z m-671 17 c-4 -3 -2 -12 5 -20 9 -11
7 -15 -10 -20 -12 -3 -22 -10 -22 -15 0 -6 8 -7 18 -3 13 5 14 4 5 -6 -10 -9
-15 -10 -27 0 -9 7 -17 8 -20 2 -3 -5 0 -12 6 -14 7 -3 4 -6 -8 -6 -11 -1 -29
-7 -39 -15 -17 -12 -17 -16 -6 -30 12 -14 12 -16 -4 -10 -13 5 -25 -1 -43 -22
l-24 -29 18 34 c11 19 36 51 57 71 24 24 34 39 26 42 -7 2 2 13 22 25 33 21
59 30 46 16z m1298 -20 c-25 -38 -177 -233 -187 -239 -4 -3 38 56 94 130 97
129 132 170 93 109z m-4206 10 c-4 -22 3 -32 16 -27 8 4 15 1 15 -4 0 -6 -10
-12 -22 -14 -13 -2 -22 -9 -20 -16 2 -10 -2 -10 -18 0 -20 13 -20 13 1 20 17
7 19 11 10 22 -11 13 -8 17 17 25 1 1 1 -2 1 -6z m4447 -51 c-18 -16 -18 -16
-6 6 6 13 14 21 18 18 3 -4 -2 -14 -12 -24z m-3376 -12 c7 -16 10 -31 9 -34
-2 -2 3 -12 12 -22 9 -11 28 -59 42 -109 33 -119 37 -136 26 -129 -5 3 -9 14
-9 25 0 11 -7 22 -16 26 -10 4 -12 8 -5 13 18 10 -10 82 -37 96 -34 17 -40 27
-9 15 16 -6 27 -7 27 -1 0 14 -36 71 -41 65 -3 -2 -6 10 -7 28 -2 18 -7 34
-12 35 -12 4 -13 22 -1 22 5 0 14 -13 21 -30z m-1013 -3 c7 0 10 -4 7 -9 -3
-4 5 -8 18 -8 18 0 20 2 8 10 -12 8 -12 10 4 16 11 4 21 2 27 -7 12 -20 -46
-37 -72 -21 -10 7 -26 12 -34 12 -9 0 -13 5 -10 11 4 6 14 7 24 3 9 -3 21 -7
28 -7z m953 -7 c0 -5 -4 -10 -10 -10 -5 0 -10 5 -10 10 0 6 5 10 10 10 6 0 10
-4 10 -10z m-1018 -32 c-7 -7 -12 -8 -12 -2 0 6 3 14 7 17 3 4 9 5 12 2 2 -3
-1 -11 -7 -17z m1022 4 c-5 -4 -12 -11 -15 -15 -3 -5 -9 -2 -12 5 -3 9 3 14
15 15 11 1 16 -1 12 -5z m-914 -13 c0 -6 -9 -9 -20 -6 -18 5 -18 3 -4 -19 14
-20 22 -23 57 -18 23 2 44 10 48 15 5 8 9 8 13 0 4 -6 1 -13 -6 -15 -76 -22
-86 -23 -101 -11 -10 7 -17 17 -17 24 0 6 -13 14 -30 18 -44 8 -37 18 15 20
27 2 45 -2 45 -8z m2767 -15 c-3 -3 -12 -4 -19 -1 -8 3 -5 6 6 6 11 1 17 -2
13 -5z m-2818 -18 c9 -11 6 -12 -14 -8 -14 2 -22 8 -19 13 8 13 20 11 33 -5z
m975 -15 c-2 -3 -12 3 -22 13 -16 17 -16 18 5 5 12 -7 20 -15 17 -18z m1850
10 c3 -4 -7 -19 -22 -32 l-27 -24 23 26 c12 14 19 29 15 32 -3 4 -4 7 0 7 3 0
8 -4 11 -9z m-2673 -51 c9 0 24 -7 35 -15 15 -11 16 -14 4 -15 -9 0 -20 4 -25
9 -6 5 -20 12 -32 16 -17 5 -23 2 -23 -10 0 -9 4 -14 9 -11 13 9 39 -3 45 -20
3 -8 1 -12 -4 -9 -18 11 -81 15 -99 6 -13 -7 -18 -6 -18 4 0 8 7 17 15 20 12
4 12 8 1 23 -12 15 -12 16 1 6 9 -7 23 -8 35 -3 18 7 18 8 -5 9 -23 1 -23 2
-5 10 13 5 26 3 36 -6 8 -8 22 -14 30 -14z m77 -11 c13 -21 13 -21 -12 -3 -27
20 -35 37 -13 28 7 -2 18 -14 25 -25z m2273 14 c12 -16 12 -17 -1 -7 -8 7 -24
14 -35 17 -19 4 -19 5 1 6 12 0 28 -7 35 -16z m-80 -26 c-10 -9 -11 -8 -5 6 3
10 9 15 12 12 3 -3 0 -11 -7 -18z m339 10 c0 -2 -12 -14 -27 -28 l-28 -24 24
28 c23 25 31 32 31 24z m-789 -69 c61 -71 73 -93 21 -39 -23 24 -42 48 -42 53
0 5 -5 6 -12 2 -6 -4 -8 -3 -4 4 3 6 -2 15 -11 21 -10 6 -13 11 -7 11 5 0 30
-24 55 -52z m1349 49 c0 -2 -15 -16 -32 -33 l-33 -29 29 33 c28 30 36 37 36
29z m-3093 -56 c-9 -3 -36 28 -37 43 0 5 10 -2 23 -15 12 -13 18 -26 14 -28z
m13 29 c0 -5 -2 -10 -4 -10 -3 0 -8 5 -11 10 -3 6 -1 10 4 10 6 0 11 -4 11
-10z m3720 -4 c0 -2 -8 -10 -17 -17 -16 -13 -17 -12 -4 4 13 16 21 21 21 13z
m-2905 -44 c-3 -3 -11 0 -18 7 -9 10 -8 11 6 5 10 -3 15 -9 12 -12z m519 -11
c4 -5 -3 -7 -14 -4 -23 6 -26 13 -6 13 8 0 17 -4 20 -9z m2346 5 c0 -2 -8 -10
-17 -17 -16 -13 -17 -12 -4 4 13 16 21 21 21 13z m-3635 -17 c22 -6 16 -7 -23
-3 -40 4 -52 2 -46 -7 4 -8 3 -9 -5 -5 -6 4 -9 12 -6 17 7 11 38 10 80 -2z
m1336 -35 c12 -25 18 -48 16 -51 -3 -2 -10 12 -17 31 -6 20 -15 35 -20 33 -8
-2 -10 3 -10 23 0 22 12 8 31 -36z m199 -46 c17 -27 27 -47 22 -44 -5 3 -21
25 -37 50 -16 26 -33 46 -37 46 -4 0 -8 5 -8 11 0 19 27 -9 60 -63z m-1569 49
c-6 -8 -7 -18 -3 -22 4 -5 1 -5 -6 -1 -10 6 -10 11 -1 22 6 8 14 14 16 14 3 0
0 -6 -6 -13z m1354 -121 c25 -48 45 -95 45 -105 0 -9 -13 13 -28 49 -16 36
-45 91 -65 123 -20 31 -37 61 -37 65 1 17 43 -49 85 -132z m2230 69 c-26 -30
-50 -55 -53 -55 -5 0 8 16 67 83 45 50 33 28 -14 -28z m-3641 29 c3 -8 2 -12
-4 -9 -6 3 -10 10 -10 16 0 14 7 11 14 -7z m91 6 c-3 -5 -11 -10 -16 -10 -6 0
-7 5 -4 10 3 6 11 10 16 10 6 0 7 -4 4 -10z m26 -12 c-11 -11 -19 -24 -16 -27
2 -4 -4 -7 -14 -8 -14 -1 -13 4 8 27 14 16 30 29 34 30 4 0 -1 -10 -12 -22z
m806 0 c-3 -8 -6 -5 -6 6 -1 11 2 17 5 13 3 -3 4 -12 1 -19z m477 6 c3 -8 2
-12 -4 -9 -6 3 -10 10 -10 16 0 14 7 11 14 -7z m1335 -6 c-2 -2 -20 -16 -39
-33 l-35 -30 34 37 c19 21 37 36 39 33 3 -3 3 -6 1 -7z m-2704 -8 c3 -5 1 -10
-4 -10 -6 0 -11 5 -11 10 0 6 2 10 4 10 3 0 8 -4 11 -10z m2375 6 c0 -2 -8
-10 -17 -17 -16 -13 -17 -12 -4 4 13 16 21 21 21 13z m470 -20 c0 -2 -7 -7
-16 -10 -8 -3 -12 -2 -9 4 6 10 25 14 25 6z m-2810 -29 c0 -2 -10 -12 -22 -23
l-23 -19 19 23 c18 21 26 27 26 19z m110 -32 c-7 -8 -17 -12 -22 -9 -6 4 -5
10 3 15 22 14 33 10 19 -6z m2480 2 c0 -2 -10 -12 -22 -23 l-23 -19 19 23 c18
21 26 27 26 19z m-2536 -23 c5 -13 4 -14 -7 -6 -8 7 -16 9 -19 6 -3 -3 -9 -1
-13 5 -3 6 2 11 13 11 11 0 23 -7 26 -16z m86 12 c0 -3 -4 -8 -10 -11 -5 -3
-10 -1 -10 4 0 6 5 11 10 11 6 0 10 -2 10 -4z m-40 -28 c0 -6 -6 -5 -15 2 -8
7 -15 14 -15 16 0 2 7 1 15 -2 8 -4 15 -11 15 -16z m80 12 c0 -5 -2 -10 -4
-10 -3 0 -8 5 -11 10 -3 6 -1 10 4 10 6 0 11 -4 11 -10z m3330 7 c0 -1 -28
-29 -62 -62 l-63 -60 60 63 c55 58 65 67 65 59z m-3290 -28 c-14 -4 -19 -7
-11 -8 8 -1 12 -3 9 -6 -10 -10 -37 7 -32 19 3 8 15 11 32 8 l27 -6 -25 -7z
m667 -41 c-2 -13 -4 -3 -4 22 0 25 2 35 4 23 2 -13 2 -33 0 -45z m-819 35
c-10 -2 -18 -9 -18 -15 0 -6 -3 -9 -6 -5 -10 10 6 27 24 26 15 -1 15 -2 0 -6z
m2482 3 c0 -2 -8 -10 -17 -17 -16 -13 -17 -12 -4 4 13 16 21 21 21 13z m-1723
-28 c-3 -8 -6 -5 -6 6 -1 11 2 17 5 13 3 -3 4 -12 1 -19z m1296 -3 c-3 -9 -8
-14 -10 -11 -3 3 -2 9 2 15 9 16 15 13 8 -4z m-2043 -5 c0 -5 -2 -10 -4 -10
-3 0 -8 5 -11 10 -3 6 -1 10 4 10 6 0 11 -4 11 -10z m1347 -22 c-3 -8 -6 -5
-6 6 -1 11 2 17 5 13 3 -3 4 -12 1 -19z m-590 -20 c-3 -7 -5 -2 -5 12 0 14 2
19 5 13 2 -7 2 -19 0 -25z m-593 -7 c-2 -3 -12 3 -22 13 -16 17 -16 18 5 5 12
-7 20 -15 17 -18z m-139 -1 c-3 -5 -12 -10 -18 -10 -7 0 -6 4 3 10 19 12 23
12 15 0z m100 0 c-3 -5 -16 -10 -28 -9 -21 0 -21 1 -2 9 28 12 37 12 30 0z
m2285 -10 c-6 -11 -13 -20 -16 -20 -2 0 0 9 6 20 6 11 13 20 16 20 2 0 0 -9
-6 -20z m780 -121 c-69 -66 -165 -154 -215 -196 -118 -99 -121 -101 -185 -149
-60 -44 -104 -70 -55 -32 171 132 302 243 424 359 80 77 148 139 151 139 3 -1
-51 -55 -120 -121z m-3110 107 c0 -2 -7 -7 -16 -10 -8 -3 -12 -2 -9 4 6 10 25
14 25 6z m90 -17 c0 -6 -4 -7 -10 -4 -5 3 -10 11 -10 16 0 6 5 7 10 4 6 -3 10
-11 10 -16z m80 11 c0 -5 -2 -10 -4 -10 -3 0 -8 5 -11 10 -3 6 -1 10 4 10 6 0
11 -4 11 -10z m517 -12 c-3 -8 -6 -5 -6 6 -1 11 2 17 5 13 3 -3 4 -12 1 -19z
m590 -15 c-3 -10 -5 -4 -5 12 0 17 2 24 5 18 2 -7 2 -21 0 -30z m-13 -23 c5
-17 4 -20 -2 -10 -5 8 -13 26 -16 40 -5 17 -4 20 2 10 5 -8 13 -26 16 -40z
m-1134 25 c11 -13 10 -14 -4 -9 -9 3 -16 2 -16 -3 0 -6 -11 -15 -25 -21 -40
-18 -44 -14 -7 8 17 11 32 24 32 30 0 14 5 13 20 -5z m90 11 c0 -3 -4 -8 -10
-11 -5 -3 -10 -1 -10 4 0 6 5 11 10 11 6 0 10 -2 10 -4z m477 -38 c-3 -8 -6
-5 -6 6 -1 11 2 17 5 13 3 -3 4 -12 1 -19z m-527 8 c0 -3 -4 -8 -10 -11 -5 -3
-10 -1 -10 4 0 6 5 11 10 11 6 0 10 -2 10 -4z m35 -26 c-3 -5 -1 -10 6 -10 7
0 10 -2 7 -5 -3 -3 -13 -2 -22 1 -14 5 -15 9 -4 15 17 11 20 11 13 -1z m-80
-21 c-5 -6 -55 0 -55 7 0 3 13 3 29 2 16 -1 28 -5 26 -9z m129 5 c23 -9 20
-23 -4 -17 -11 3 -20 9 -20 14 0 11 3 11 24 3z m1036 -29 c0 -5 -5 -3 -10 5
-5 8 -10 20 -10 25 0 6 5 3 10 -5 5 -8 10 -19 10 -25z m-1060 -11 c0 -2 -17
-4 -37 -3 -29 0 -33 2 -18 8 18 7 55 4 55 -5z m0 -23 c0 -11 -49 -21 -55 -10
-3 4 7 10 22 12 16 2 29 5 31 6 1 0 2 -3 2 -8z m-145 -20 c-3 -5 -1 -12 5 -16
5 -3 10 -1 10 5 0 6 5 8 11 4 8 -5 8 -8 0 -13 -7 -5 1 -19 23 -39 19 -17 37
-28 40 -25 3 4 6 -1 6 -10 0 -8 14 -25 31 -37 16 -12 28 -25 24 -28 -8 -8
-165 150 -159 160 3 4 7 8 10 8 3 0 3 -4 -1 -9z m175 -1 c0 -5 -7 -10 -15 -10
-8 0 -15 5 -15 10 0 6 7 10 15 10 8 0 15 -4 15 -10z m51 -17 c13 -17 13 -17
-6 -3 -11 8 -22 16 -24 17 -2 2 0 3 6 3 6 0 17 -8 24 -17z m126 -59 c-3 -3
-12 -4 -19 -1 -8 3 -5 6 6 6 11 1 17 -2 13 -5z m-117 -16 c0 -4 -6 -8 -14 -8
-8 0 -17 4 -20 8 -2 4 4 8 15 8 10 0 19 -4 19 -8z m1377 -30 c-3 -8 -6 -5 -6
6 -1 11 2 17 5 13 3 -3 4 -12 1 -19z m-10 -50 c-3 -8 -6 -5 -6 6 -1 11 2 17 5
13 3 -3 4 -12 1 -19z m-1404 -12 c7 4 9 4 5 -1 -4 -4 -2 -15 4 -24 7 -9 0 -5
-15 8 -15 14 -27 29 -27 35 0 6 5 3 11 -7 6 -9 16 -14 22 -11z m105 -106 c41
-39 23 -32 -28 11 -27 23 -50 44 -50 46 0 6 50 -31 78 -57z m1248 -7 c-25 -49
-55 -93 -56 -82 0 4 16 33 35 65 19 32 35 62 35 68 0 5 3 7 6 4 3 -3 -6 -28
-20 -55z m979 -42 c-5 -9 -181 -136 -215 -156 -34 -19 6 13 107 86 116 83 117
84 108 70z m-2085 -79 c0 -7 -56 36 -75 59 -11 12 1 5 28 -16 26 -22 47 -41
47 -43z m51 -39 c13 -16 12 -17 -3 -4 -17 13 -22 21 -14 21 2 0 10 -8 17 -17z
m99 -80 c0 -7 -55 34 -71 54 -8 10 5 3 29 -16 23 -18 42 -35 42 -38z m1670 13
c0 -3 -15 -14 -32 -26 l-33 -22 30 26 c31 27 35 29 35 22z m-105 -72 c-26 -20
-55 -36 -55 -30 0 5 63 46 70 46 3 -1 -4 -8 -15 -16z m-65 -39 c0 -2 -10 -9
-22 -15 -22 -11 -22 -10 -4 4 21 17 26 19 26 11z m-415 -235 c-3 -5 -12 -10
-18 -10 -7 0 -6 4 3 10 19 12 23 12 15 0z"/>
<path d="M4989 8538 c-41 -81 -106 -174 -169 -241 -125 -134 -210 -176 -370
-182 -175 -7 -351 44 -449 129 -23 21 -24 21 -13 1 16 -32 201 -132 299 -161
118 -36 260 -38 344 -6 126 50 202 125 284 283 24 46 48 83 54 82 6 -2 7 5 4
14 -4 11 -3 14 5 9 7 -4 10 -2 6 7 -2 7 4 35 15 60 25 59 19 61 -10 5z"/>
<path d="M5270 8496 c0 -5 28 -74 42 -106 16 -33 83 -127 122 -168 29 -32 152
-102 177 -102 7 0 -15 18 -49 39 -67 43 -142 108 -142 122 0 5 -16 23 -35 40
-20 18 -50 64 -70 105 -30 63 -45 86 -45 70z"/>
<path d="M4927 8364 c-37 -62 -34 -70 4 -11 18 26 30 49 28 52 -3 2 -17 -16
-32 -41z"/>
<path d="M6186 8193 c-53 -28 -220 -82 -291 -93 -38 -6 -71 -13 -74 -15 -12
-13 176 6 238 24 89 26 118 41 150 75 28 29 20 33 -23 9z"/>
<path d="M5938 7952 c-10 -4 60 -7 155 -7 95 0 195 -3 222 -7 41 -6 45 -5 25
4 -29 12 -376 22 -402 10z"/>
<path d="M6440 7912 c8 -5 26 -13 40 -16 17 -5 20 -4 10 2 -8 5 -26 13 -40 16
-17 5 -20 4 -10 -2z"/>
<path d="M3445 7920 c-3 -6 1 -7 9 -4 18 7 21 14 7 14 -6 0 -13 -4 -16 -10z"/>
<path d="M2470 3940 c-12 -7 -10 -9 7 -7 12 0 19 5 17 9 -6 10 -6 10 -24 -2z"/>
<path d="M2416 3906 c3 -8 17 -22 30 -31 21 -14 24 -14 24 0 0 8 -3 14 -7 14
-20 -3 -34 2 -29 10 3 5 16 7 29 4 18 -4 19 -3 7 6 -23 16 -61 14 -54 -3z"/>
<path d="M2490 3800 c-13 -8 -13 -10 2 -10 9 0 20 5 23 10 8 13 -5 13 -25 0z"/>
<path d="M2490 3751 c0 -10 19 -25 25 -20 1 2 -3 10 -11 17 -8 7 -14 8 -14 3z"/>
<path d="M2570 3740 c-9 -6 -10 -10 -3 -10 6 0 15 5 18 10 8 12 4 12 -15 0z"/>
<path d="M2560 3706 c7 -7 13 -7 20 0 6 6 3 10 -10 10 -13 0 -16 -4 -10 -10z"/>
<path d="M2635 3700 c4 -6 11 -8 16 -5 14 9 11 15 -7 15 -8 0 -12 -5 -9 -10z"/>
<path d="M2705 3700 c27 -12 43 -12 25 0 -8 5 -22 9 -30 9 -10 0 -8 -3 5 -9z"/>
<path d="M2565 3680 c-3 -5 -2 -10 4 -10 5 0 13 5 16 10 3 6 2 10 -4 10 -5 0
-13 -4 -16 -10z"/>
<path d="M2608 3683 c7 -3 16 -2 19 1 4 3 -2 6 -13 5 -11 0 -14 -3 -6 -6z"/>
<path d="M2541 3654 c0 -11 3 -14 6 -6 3 7 2 16 -1 19 -3 4 -6 -2 -5 -13z"/>
<path d="M2690 3666 c0 -2 8 -10 18 -17 15 -13 16 -12 3 4 -13 16 -21 21 -21
13z"/>
<path d="M2665 3649 c-9 -14 -2 -20 14 -10 8 6 9 11 3 15 -6 3 -14 1 -17 -5z"/>
<path d="M2680 3626 c0 -2 7 -7 16 -10 8 -3 12 -2 9 4 -6 10 -25 14 -25 6z"/>
<path d="M2740 3622 c0 -3 7 -13 16 -23 14 -16 14 -18 -5 -24 -12 -3 -25 -4
-29 -1 -5 3 -9 -1 -9 -8 0 -7 13 -12 32 -12 22 1 31 5 28 14 -3 7 3 12 13 12
16 1 15 3 -5 14 -17 9 -20 15 -10 18 9 3 6 7 -9 10 -12 4 -22 4 -22 0z"/>
<path d="M2580 3600 c36 -12 72 -12 65 0 -3 6 -25 10 -48 9 -36 -1 -38 -2 -17
-9z"/>
<path d="M2576 3578 c3 -4 9 -8 15 -8 5 0 9 4 9 8 0 5 -7 9 -15 9 -8 0 -12 -4
-9 -9z"/>
<path d="M2620 3570 c11 -7 11 -10 2 -10 -7 0 -10 -4 -7 -10 3 -5 1 -10 -4
-10 -6 0 -11 5 -11 12 0 6 -3 8 -6 5 -4 -4 -1 -13 6 -22 11 -14 14 -13 26 2
19 25 17 43 -3 43 -15 0 -16 -2 -3 -10z"/>
<path d="M2659 3570 c10 -5 9 -9 -2 -13 -18 -7 -19 -53 -1 -67 9 -9 18 -6 33
9 26 26 33 26 54 3 17 -18 14 -32 -6 -32 -6 0 -7 3 -4 7 4 3 2 12 -4 19 -9 11
-13 11 -25 -1 -8 -7 -14 -18 -14 -24 0 -6 -6 -8 -14 -5 -7 3 -16 -2 -20 -11
-5 -14 -1 -16 25 -10 22 5 29 4 25 -4 -4 -6 -11 -9 -16 -6 -5 3 -12 0 -15 -6
-8 -11 33 -94 72 -145 13 -17 23 -36 23 -42 0 -6 9 -17 20 -25 11 -8 17 -17
13 -20 -3 -4 1 -7 10 -7 10 0 17 -5 17 -11 0 -5 -6 -7 -12 -3 -8 4 -10 3 -5
-2 5 -5 12 -9 15 -10 4 0 15 -4 24 -8 22 -10 59 -4 57 9 0 6 -6 8 -13 6 -25
-8 -39 -5 -43 9 -3 11 -2 12 5 2 9 -14 42 -6 42 10 0 6 7 7 16 4 8 -3 13 -2 9
3 -10 17 20 19 38 3 9 -8 17 -10 17 -4 0 6 -6 13 -12 15 -8 3 -6 6 5 6 9 1 17
-3 17 -8 0 -12 39 -21 46 -10 3 5 -4 9 -15 9 -12 0 -21 5 -21 10 0 15 -100 13
-105 -2 -3 -7 -18 -13 -34 -14 -21 -1 -28 3 -24 12 3 8 15 12 28 10 13 -3 25
0 27 6 3 7 13 13 24 14 31 4 48 9 61 17 6 4 20 -4 33 -20 20 -26 20 -27 9 -3
-7 14 -17 28 -23 32 -18 12 -38 9 -31 -4 4 -7 -1 -4 -9 6 -13 16 -13 22 -3 28
9 6 9 8 -2 8 -10 0 -11 3 -2 13 17 21 0 29 -21 10 -10 -9 -18 -13 -18 -8 0 4
8 14 17 21 10 7 14 16 10 20 -4 5 -12 2 -17 -6 -7 -10 -10 -11 -10 -2 0 15
-26 16 -36 0 -5 -8 -2 -9 9 -5 19 7 22 -4 6 -20 -7 -7 -3 -12 16 -17 14 -4 23
-11 20 -16 -3 -5 -1 -11 5 -15 13 -8 13 -25 -1 -25 -5 0 -8 4 -5 9 10 15 -22
33 -63 34 -23 1 -41 -1 -41 -5 0 -5 3 -8 6 -7 4 0 10 -5 15 -12 5 -9 -2 -17
-23 -26 -37 -16 -50 -10 -17 8 21 11 22 12 5 25 -10 7 -15 17 -11 23 4 7 -4
10 -22 7 -16 -1 -35 3 -42 11 -11 12 -7 13 26 9 21 -3 48 -8 60 -12 12 -3 30
-1 40 6 15 10 14 10 -12 5 -24 -4 -27 -3 -12 5 9 6 15 16 11 21 -3 6 -12 3
-21 -8 -8 -11 -16 -14 -19 -7 -2 6 -24 9 -49 7 -36 -3 -45 0 -45 12 0 9 5 13
11 10 5 -4 20 -8 32 -9 25 -3 53 19 37 29 -6 3 -10 1 -10 -4 0 -22 -85 -8 -94
15 -3 8 -2 13 2 12 4 -1 17 1 29 5 27 10 93 -16 93 -37 0 -11 6 -9 24 7 28 25
27 34 -3 18 -13 -7 -22 -8 -26 -1 -3 5 -1 10 5 10 6 0 8 5 5 10 -8 13 16 13
49 0 14 -5 26 -7 26 -4 0 3 -15 10 -32 17 l-33 11 30 6 c17 3 25 8 19 12 -6 4
-22 1 -37 -7 -15 -8 -27 -10 -27 -6 0 11 -49 1 -56 -10 -8 -13 -21 -11 -27 4
-3 7 3 13 12 14 9 1 25 4 36 6 11 3 33 6 49 6 32 1 32 9 0 14 -10 1 -30 10
-43 19 -13 9 -31 14 -40 10 -14 -5 -14 -4 -1 14 11 15 11 16 0 7 -18 -16 -54
-17 -44 -1 4 6 3 8 -4 4 -6 -3 -13 -2 -17 4 -3 5 1 10 9 10 27 0 17 15 -11 17
-15 0 -21 -2 -14 -7z m17 -31 c3 -6 1 -15 -5 -20 -6 -5 -9 -6 -6 -3 3 4 0 13
-6 21 -8 9 -8 13 -1 13 6 0 14 -5 18 -11z m114 -49 c0 -14 -28 -1 -34 16 -4
12 -2 12 14 4 11 -6 20 -15 20 -20z m-72 -14 c-7 -8 -15 -12 -17 -11 -5 6 10
25 20 25 5 0 4 -6 -3 -14z m86 -40 c-3 -8 -13 -12 -25 -9 -23 6 -15 23 11 23
12 0 17 -5 14 -14z m-30 -142 c9 -3 16 -12 16 -20 0 -20 -13 -17 -28 6 -13 22
-12 23 12 14z m116 -8 c0 -2 -7 -6 -15 -10 -8 -3 -15 -1 -15 4 0 6 7 10 15 10
8 0 15 -2 15 -4z m10 -20 c0 -2 -7 -7 -16 -10 -8 -3 -12 -2 -9 4 6 10 25 14
25 6z m-70 -42 c0 -2 -9 -4 -21 -4 -11 0 -18 4 -14 10 5 8 35 3 35 -6z"/>
<path d="M2816 3519 c12 -12 28 -19 35 -17 8 3 -1 12 -21 22 l-35 17 21 -22z"/>
<path d="M2720 3410 c-13 -8 -12 -10 3 -10 9 0 17 5 17 10 0 12 -1 12 -20 0z"/>
<path d="M2861 3384 c0 -11 3 -14 6 -6 3 7 2 16 -1 19 -3 4 -6 -2 -5 -13z"/>
<path d="M2900 3390 c-12 -8 -10 -10 8 -10 13 0 20 4 17 10 -7 12 -6 12 -25 0z"/>
<path d="M3100 3050 c-9 -18 -4 -30 12 -30 5 0 6 5 3 10 -3 6 1 13 9 16 21 8
21 21 0 21 -8 0 -19 -8 -24 -17z"/>
<path d="M3145 3030 c-8 -13 3 -30 21 -30 18 0 18 14 0 29 -10 8 -16 9 -21 1z"/>
<path d="M3090 2836 c-14 -8 -28 -12 -32 -10 -14 9 -8 -13 6 -25 10 -8 16 -9
21 -1 3 5 1 10 -6 10 -7 0 -10 3 -6 6 3 3 20 3 38 -1 24 -5 28 -9 18 -16 -10
-7 -5 -9 15 -7 44 4 46 28 2 28 -27 0 -34 3 -30 15 7 18 6 18 -26 1z"/>
<path d="M3380 2740 c0 -5 5 -10 11 -10 5 0 7 5 4 10 -3 6 -8 10 -11 10 -2 0
-4 -4 -4 -10z"/>
<path d="M4600 7637 c0 -3 52 -44 115 -91 63 -47 113 -92 111 -99 -1 -6 -1 -8
2 -4 5 10 72 -52 72 -66 0 -5 22 -44 50 -86 126 -194 163 -251 166 -251 2 0
-8 21 -22 48 -24 44 -39 69 -136 215 -21 32 -38 62 -38 67 0 10 -133 140 -157
154 -10 5 -45 30 -78 56 -66 51 -85 63 -85 57z"/>
<path d="M5150 7070 c-6 -11 -8 -20 -6 -20 3 0 10 9 16 20 6 11 8 20 6 20 -3
0 -10 -9 -16 -20z"/>
<path d="M7245 7785 c22 -20 63 -54 90 -76 36 -29 30 -22 -20 26 -38 37 -79
71 -90 76 -11 6 -2 -6 20 -26z"/>
<path d="M7363 7714 c26 -28 45 -53 42 -56 -3 -3 1 -11 10 -18 10 -8 15 -9 15
-1 0 6 -6 11 -12 11 -8 0 -9 3 -3 8 6 4 -13 28 -45 57 l-55 49 48 -50z"/>
<path d="M7440 7626 c0 -2 8 -10 18 -17 15 -13 16 -12 3 4 -13 16 -21 21 -21
13z"/>
<path d="M7480 7592 c0 -12 19 -26 26 -19 2 2 -2 10 -11 17 -9 8 -15 8 -15 2z"/>
<path d="M7660 7457 c0 -3 12 -12 26 -22 15 -9 23 -12 20 -6 -7 11 -46 35 -46
28z"/>
<path d="M8235 7320 c3 -5 8 -10 11 -10 2 0 4 5 4 10 0 6 -5 10 -11 10 -5 0
-7 -4 -4 -10z"/>
<path d="M8078 7293 c7 -3 16 -2 19 1 4 3 -2 6 -13 5 -11 0 -14 -3 -6 -6z"/>
<path d="M8228 7283 c6 -2 18 -2 25 0 6 3 1 5 -13 5 -14 0 -19 -2 -12 -5z"/>
<path d="M8065 7250 c-3 -6 1 -7 9 -4 18 7 21 14 7 14 -6 0 -13 -4 -16 -10z"/>
<path d="M8150 7169 c0 -5 5 -7 10 -4 6 3 10 8 10 11 0 2 -4 4 -10 4 -5 0 -10
-5 -10 -11z"/>
<path d="M8210 6886 c0 -2 9 -6 20 -9 11 -3 20 -1 20 4 0 5 -9 9 -20 9 -11 0
-20 -2 -20 -4z"/>
<path d="M8225 6800 c3 -5 8 -10 11 -10 2 0 4 5 4 10 0 6 -5 10 -11 10 -5 0
-7 -4 -4 -10z"/>
<path d="M8246 6617 c3 -10 9 -15 12 -12 3 3 0 11 -7 18 -10 9 -11 8 -5 -6z"/>
<path d="M8080 6616 c0 -2 7 -7 16 -10 8 -3 12 -2 9 4 -6 10 -25 14 -25 6z"/>
<path d="M8220 6436 c0 -3 9 -10 20 -16 11 -6 20 -8 20 -6 0 3 -9 10 -20 16
-11 6 -20 8 -20 6z"/>
<path d="M8280 6420 c0 -5 5 -10 11 -10 5 0 7 5 4 10 -3 6 -8 10 -11 10 -2 0
-4 -4 -4 -10z"/>
<path d="M8144 6375 c-18 -14 -18 -14 4 -8 12 3 22 9 22 14 0 12 -3 11 -26 -6z"/>
<path d="M8251 6363 c12 -14 12 -16 -1 -11 -47 17 -62 20 -56 9 4 -6 16 -11
26 -11 11 0 29 -10 41 -22 l21 -23 -12 25 c-8 14 -13 26 -12 28 6 8 0 22 -9
22 -8 0 -7 -6 2 -17z"/>
<path d="M8187 6323 c-10 -9 13 -33 32 -33 13 1 13 2 -3 11 -15 9 -16 13 -5
20 11 7 11 9 -2 9 -9 0 -19 -3 -22 -7z"/>
<path d="M8095 6290 c-3 -5 -2 -10 4 -10 5 0 13 5 16 10 3 6 2 10 -4 10 -5 0
-13 -4 -16 -10z"/>
<path d="M8130 6291 c0 -6 4 -12 8 -15 5 -3 9 1 9 9 0 8 -4 15 -9 15 -4 0 -8
-4 -8 -9z"/>
<path d="M8277 6294 c-3 -3 -3 -13 0 -22 5 -11 2 -14 -9 -10 -9 4 -15 0 -15
-8 0 -8 5 -14 10 -14 6 0 7 -3 4 -7 -4 -3 -16 2 -27 12 -16 14 -23 16 -32 7
-11 -11 -5 -15 22 -14 3 0 11 -6 18 -14 10 -11 10 -14 -1 -14 -7 0 -18 5 -25
12 -9 9 -15 9 -24 -1 -11 -10 -9 -12 7 -9 12 2 21 -3 23 -14 3 -14 -1 -16 -14
-11 -10 4 -15 2 -11 -3 3 -5 -3 -10 -14 -10 -21 0 -25 12 -6 19 6 3 2 6 -10 6
-27 1 -41 -18 -22 -30 24 -15 50 -10 95 19 40 25 43 30 44 70 0 42 -2 47 -13
36z"/>
<path d="M8060 6286 c0 -2 8 -10 18 -17 15 -13 16 -12 3 4 -13 16 -21 21 -21
13z"/>
<path d="M8230 6280 c-8 -5 -10 -10 -5 -10 6 0 17 5 25 10 8 5 11 10 5 10 -5
0 -17 -5 -25 -10z"/>
<path d="M8123 6243 c4 -6 2 -13 -5 -15 -7 -3 -2 -7 10 -10 26 -7 29 4 5 23
-9 8 -14 9 -10 2z"/>
<path d="M8080 6196 c0 -9 5 -16 10 -16 6 0 10 4 10 9 0 6 -4 13 -10 16 -5 3
-10 -1 -10 -9z"/>
<path d="M8084 6162 c3 -6 1 -12 -6 -14 -14 -5 -2 -28 15 -28 7 0 6 4 -3 10
-16 10 -8 14 25 10 23 -2 20 2 -14 20 -13 6 -21 7 -17 2z"/>
<path d="M8123 6123 c9 -2 23 -2 30 0 6 3 -1 5 -18 5 -16 0 -22 -2 -12 -5z"/>
<path d="M8100 6070 c8 -5 20 -10 25 -10 6 0 3 5 -5 10 -8 5 -19 10 -25 10 -5
0 -3 -5 5 -10z"/>
<path d="M8070 5998 c0 -21 30 -32 44 -17 8 9 7 10 -3 4 -9 -5 -19 -1 -28 10
-11 16 -13 16 -13 3z"/>
<path d="M8070 5810 c-20 -12 -5 -24 16 -12 9 5 12 12 7 15 -5 3 -15 2 -23 -3z"/>
<path d="M8020 5410 c0 -5 5 -10 10 -10 6 0 10 5 10 10 0 6 -4 10 -10 10 -5 0
-10 -4 -10 -10z"/>
<path d="M8010 5316 c0 -2 7 -7 16 -10 8 -3 12 -2 9 4 -6 10 -25 14 -25 6z"/>
<path d="M8047 5269 c7 -7 15 -10 18 -7 3 3 -2 9 -12 12 -14 6 -15 5 -6 -5z"/>
<path d="M7990 5256 c0 -9 40 -13 46 -5 3 5 -6 9 -20 9 -14 0 -26 -2 -26 -4z"/>
<path d="M7993 5215 c0 -8 4 -12 9 -9 4 3 8 1 8 -4 0 -14 43 -23 54 -12 7 7 1
10 -16 10 -14 0 -28 7 -32 15 -7 19 -23 19 -23 0z"/>
<path d="M8077 5222 c-15 -6 -13 -10 13 -25 16 -10 30 -13 30 -8 0 6 -7 11
-16 11 -10 0 -14 6 -10 15 3 8 4 15 3 14 -1 0 -10 -4 -20 -7z"/>
<path d="M7883 4720 c-1 -12 8 -17 35 -18 40 -3 40 -1 -4 20 -27 13 -30 13
-31 -2z"/>
<path d="M6160 7614 c-66 -23 -74 -37 -10 -18 30 9 69 20 85 24 l30 8 -30 0
c-16 1 -50 -6 -75 -14z"/>
<path d="M6345 7570 c-42 -11 -1 -11 50 -1 34 7 35 9 10 9 -16 0 -43 -4 -60
-8z"/>
<path d="M6288 7553 c7 -3 16 -2 19 1 4 3 -2 6 -13 5 -11 0 -14 -3 -6 -6z"/>
<path d="M5814 7374 c-18 -14 -18 -14 6 -3 31 14 36 19 24 19 -6 0 -19 -7 -30
-16z"/>
<path d="M5559 7283 c-13 -16 -12 -17 4 -4 9 7 17 15 17 17 0 8 -8 3 -21 -13z"/>
<path d="M6530 7359 c-25 -5 -81 -16 -125 -25 -100 -20 -188 -44 -181 -51 2
-3 26 2 53 11 39 12 213 48 343 69 18 3 15 4 -10 5 -19 0 -55 -4 -80 -9z"/>
<path d="M7070 7306 c0 -7 82 -57 86 -53 2 2 -14 16 -36 31 -38 25 -50 30 -50
22z"/>
<path d="M6145 7259 c-27 -10 -37 -17 -21 -14 31 7 97 33 81 33 -5 0 -32 -8
-60 -19z"/>
<path d="M3408 7063 c7 -3 16 -2 19 1 4 3 -2 6 -13 5 -11 0 -14 -3 -6 -6z"/>
<path d="M3328 7053 c6 -2 18 -2 25 0 6 3 1 5 -13 5 -14 0 -19 -2 -12 -5z"/>
<path d="M3190 7023 c-48 -31 -92 -78 -111 -118 l-20 -40 36 43 c20 23 42 42
50 42 7 0 19 8 26 17 12 15 12 16 -4 10 -32 -12 -7 12 34 33 21 11 39 23 39
25 0 10 -27 4 -50 -12z"/>
<path d="M7207 6761 c-4 -17 -3 -21 5 -13 5 5 8 16 6 23 -3 8 -7 3 -11 -10z"/>
<path d="M4787 6238 c-15 -29 -40 -69 -57 -88 -17 -19 -29 -29 -25 -22 10 19
-10 14 -29 -7 -10 -11 -40 -24 -66 -30 -43 -9 -58 -7 -137 20 -80 28 -96 31
-178 26 -64 -3 -119 -14 -190 -37 -55 -18 -120 -33 -143 -33 l-44 0 70 -34
c39 -19 96 -57 129 -84 135 -113 212 -139 352 -122 83 11 87 10 108 -10 32
-31 66 -133 60 -179 -8 -56 6 -46 36 27 53 129 162 603 143 622 -2 2 -15 -20
-29 -49z m-463 -273 c86 -9 224 -48 245 -70 15 -16 14 -17 -6 -6 -13 6 -62 18
-110 26 -95 15 -199 41 -223 56 -12 8 -11 9 5 5 11 -2 51 -7 89 -11z"/>
<path d="M5446 6235 c15 -169 64 -396 64 -299 0 16 9 44 20 62 19 31 74 72 95
72 6 0 1 -6 -10 -12 -71 -39 -97 -88 -97 -187 0 -85 23 -170 76 -280 l33 -69
6 81 c6 84 31 177 60 221 16 24 21 25 81 19 111 -10 208 24 321 112 66 51 190
115 224 115 11 0 21 4 21 9 0 14 -102 33 -136 26 -24 -4 -26 -4 -9 5 16 8 13
9 -17 6 -20 -2 -40 -1 -43 2 -3 3 -18 8 -33 10 -15 2 -46 10 -70 18 -68 22
-148 17 -257 -16 -93 -29 -165 -37 -199 -24 -9 3 -13 10 -10 15 3 5 -1 6 -8 4
-22 -9 -76 56 -98 115 l-20 55 6 -60z m564 -257 c-25 -11 -97 -35 -160 -53
-63 -18 -124 -36 -135 -40 -17 -6 -16 -3 5 16 41 36 121 68 211 83 115 19 132
18 79 -6z"/>
<path d="M6227 5308 c-36 -63 -51 -94 -39 -83 13 14 75 125 69 125 -3 0 -16
-19 -30 -42z"/>
<path d="M5480 4650 c8 -5 24 -10 35 -10 17 0 17 2 5 10 -8 5 -24 10 -35 10
-17 0 -17 -2 -5 -10z"/>
<path d="M7535 5528 c16 -15 34 -28 39 -28 5 0 -4 10 -20 22 -44 33 -53 36
-19 6z"/>
<path d="M7598 5433 c7 -3 16 -2 19 1 4 3 -2 6 -13 5 -11 0 -14 -3 -6 -6z"/>
<path d="M7630 5389 c0 -5 4 -8 9 -5 5 3 16 -9 25 -27 17 -35 22 -23 6 17 -9
25 -40 37 -40 15z"/>
<path d="M3609 6483 l-24 -28 28 24 c25 23 32 31 24 31 -2 0 -14 -12 -28 -27z"/>
<path d="M3415 6002 c-26 -33 -37 -52 -32 -52 7 0 59 71 56 75 -2 2 -13 -9
-24 -23z"/>
<path d="M2595 5740 c-4 -6 -10 -8 -15 -5 -5 3 -11 1 -14 -4 -8 -13 22 -7 36
7 7 7 9 12 6 12 -4 0 -10 -5 -13 -10z"/>
<path d="M3354 5736 c-5 -6 -37 -35 -70 -64 -32 -30 -49 -49 -37 -43 28 14
129 108 123 114 -3 3 -10 0 -16 -7z"/>
<path d="M2533 5684 c-13 -14 -23 -31 -23 -37 0 -13 49 43 50 56 0 11 -3 9
-27 -19z"/>
<path d="M7560 6240 c8 -5 20 -10 25 -10 6 0 3 5 -5 10 -8 5 -19 10 -25 10 -5
0 -3 -5 5 -10z"/>
<path d="M7590 6179 c0 -5 5 -7 10 -4 6 3 10 8 10 11 0 2 -4 4 -10 4 -5 0 -10
-5 -10 -11z"/>
<path d="M7649 6136 c12 -15 51 -18 51 -4 0 13 -18 18 -24 6 -5 -10 -7 -10
-12 0 -3 6 -10 12 -16 12 -7 0 -6 -5 1 -14z"/>
<path d="M7660 6100 c8 -5 20 -10 25 -10 6 0 3 5 -5 10 -8 5 -19 10 -25 10 -5
0 -3 -5 5 -10z"/>
<path d="M6820 5376 c0 -2 8 -10 18 -17 15 -13 16 -12 3 4 -13 16 -21 21 -21
13z"/>
<path d="M7510 4939 c0 -5 5 -7 10 -4 6 3 10 8 10 11 0 2 -4 4 -10 4 -5 0 -10
-5 -10 -11z"/>
<path d="M7490 4910 c-8 -5 -10 -10 -5 -10 6 0 17 5 25 10 8 5 11 10 5 10 -5
0 -17 -5 -25 -10z"/>
<path d="M7510 4886 c0 -2 7 -7 16 -10 8 -3 12 -2 9 4 -6 10 -25 14 -25 6z"/>
<path d="M7494 4846 c4 -11 2 -23 -5 -26 -6 -4 -7 -10 -3 -13 5 -3 14 1 20 7
9 9 8 17 -4 32 -14 19 -15 19 -8 0z"/>
<path d="M7547 4810 c-3 -11 -2 -20 3 -20 12 0 21 28 11 35 -5 2 -11 -4 -14
-15z"/>
<path d="M3291 5214 c-7 -8 -11 -17 -9 -20 3 -2 13 5 23 16 10 11 14 20 9 20
-5 -1 -15 -8 -23 -16z"/>
<path d="M3209 4903 c-13 -16 -12 -17 4 -4 9 7 17 15 17 17 0 8 -8 3 -21 -13z"/>
<path d="M3268 3968 c5 -5 16 -8 23 -6 8 3 3 7 -10 11 -17 4 -21 3 -13 -5z"/>
<path d="M3277 3899 c7 -7 15 -10 18 -7 3 3 -2 9 -12 12 -14 6 -15 5 -6 -5z"/>
<path d="M3308 3803 c7 -3 16 -2 19 1 4 3 -2 6 -13 5 -11 0 -14 -3 -6 -6z"/>
<path d="M3390 3781 c0 -6 4 -13 10 -16 6 -3 7 1 4 9 -7 18 -14 21 -14 7z"/>
<path d="M3340 3765 c0 -8 2 -15 4 -15 2 0 6 7 10 15 3 8 1 15 -4 15 -6 0 -10
-7 -10 -15z"/>
<path d="M3680 3655 c0 -5 5 -17 10 -25 5 -8 10 -10 10 -5 0 6 -5 17 -10 25
-5 8 -10 11 -10 5z"/>
<path d="M3490 3646 c0 -3 9 -10 20 -16 11 -6 20 -8 20 -6 0 3 -9 10 -20 16
-11 6 -20 8 -20 6z"/>
<path d="M3721 3570 c14 -31 19 -36 19 -24 0 6 -7 19 -16 30 -14 18 -14 18 -3
-6z"/>
<path d="M3360 3560 c0 -5 5 -10 11 -10 5 0 7 5 4 10 -3 6 -8 10 -11 10 -2 0
-4 -4 -4 -10z"/>
<path d="M3396 3528 c11 -32 -7 -43 -29 -17 l-19 24 14 -24 c8 -14 23 -30 34
-35 10 -6 22 -15 26 -21 9 -13 22 1 13 14 -3 6 -16 12 -28 12 -17 1 -18 2 -4
6 21 5 21 13 2 39 -12 15 -14 15 -9 2z"/>
<path d="M3511 3520 c14 -31 19 -36 19 -24 0 6 -7 19 -16 30 -14 18 -14 18 -3
-6z"/>
<path d="M3543 3523 c9 -2 23 -2 30 0 6 3 -1 5 -18 5 -16 0 -22 -2 -12 -5z"/>
<path d="M3615 3510 c3 -5 11 -10 16 -10 6 0 7 5 4 10 -3 6 -11 10 -16 10 -6
0 -7 -4 -4 -10z"/>
<path d="M3676 3495 c-11 -8 -15 -15 -9 -15 6 0 16 7 23 15 16 19 11 19 -14 0z"/>
<path d="M3570 3486 c0 -2 7 -6 15 -10 8 -3 15 -1 15 4 0 6 -7 10 -15 10 -8 0
-15 -2 -15 -4z"/>
<path d="M3718 3483 c6 -2 18 -2 25 0 6 3 1 5 -13 5 -14 0 -19 -2 -12 -5z"/>
<path d="M3430 3435 c0 -5 5 -17 10 -25 5 -8 10 -10 10 -5 0 6 -5 17 -10 25
-5 8 -10 11 -10 5z"/>
<path d="M3611 3413 c12 -20 15 -20 29 -8 13 12 19 12 30 2 12 -10 12 -9 1 6
-11 13 -17 15 -27 6 -11 -9 -18 -8 -31 2 -15 13 -15 12 -2 -8z"/>
<path d="M3577 3409 c7 -7 15 -10 18 -7 3 3 -2 9 -12 12 -14 6 -15 5 -6 -5z"/>
<path d="M3690 3411 c0 -5 9 -7 20 -4 11 3 20 7 20 9 0 2 -9 4 -20 4 -11 0
-20 -4 -20 -9z"/>
<path d="M3664 3378 c-3 -4 -2 -8 3 -7 20 3 27 -2 13 -11 -12 -8 -10 -10 8
-10 13 0 21 4 18 9 -4 5 0 11 6 13 7 3 1 7 -15 10 -15 3 -30 1 -33 -4z"/>
<path d="M3715 3330 c-3 -5 -12 -7 -20 -3 -21 7 -19 -17 3 -33 9 -8 12 -14 5
-14 -7 0 -24 12 -38 27 -29 32 -34 19 -6 -14 11 -13 29 -23 40 -23 23 0 28
-15 9 -23 -8 -3 -6 -6 5 -6 9 -1 17 6 17 14 0 8 8 15 18 15 12 1 9 5 -10 16
-16 8 -28 19 -28 23 0 11 31 24 38 16 3 -3 0 -5 -6 -5 -17 0 -15 -17 2 -23 10
-4 13 -1 9 9 -3 10 0 12 10 8 8 -3 18 -1 22 5 3 6 0 9 -8 5 -8 -3 -18 -1 -22
5 -8 14 -32 14 -40 1z"/>
<path d="M3815 3321 c-3 -5 -1 -12 5 -16 5 -3 10 1 10 9 0 18 -6 21 -15 7z"/>
<path d="M3850 3301 c0 -6 4 -13 10 -16 6 -3 7 1 4 9 -7 18 -14 21 -14 7z"/>
<path d="M3850 3255 c0 -8 8 -11 20 -8 11 3 20 7 20 8 0 1 -9 5 -20 8 -12 3
-20 0 -20 -8z"/>
<path d="M3945 3120 c-19 -8 -19 -9 3 -9 12 -1 22 4 22 9 0 6 -1 10 -2 9 -2 0
-12 -4 -23 -9z"/>
<path d="M7247 4527 c-4 -10 -1 -17 6 -17 7 0 3 -7 -7 -15 -21 -16 -10 -21 13
-6 11 7 12 15 5 32 -9 20 -11 20 -17 6z"/>
<path d="M6752 4640 c0 -14 2 -19 5 -12 2 6 2 18 0 25 -3 6 -5 1 -5 -13z"/>
<path d="M7014 4334 c-18 -14 -18 -14 6 -3 31 14 36 19 24 19 -6 0 -19 -7 -30
-16z"/>
<path d="M7045 4280 c3 -5 8 -10 11 -10 2 0 4 5 4 10 0 6 -5 10 -11 10 -5 0
-7 -4 -4 -10z"/>
<path d="M7045 4170 c-3 -5 -1 -10 4 -10 6 0 11 5 11 10 0 6 -2 10 -4 10 -3 0
-8 -4 -11 -10z"/>
<path d="M7039 4137 c4 -4 18 -3 32 2 23 9 22 9 -8 8 -18 -1 -28 -6 -24 -10z"/>
<path d="M7008 4123 c7 -3 16 -2 19 1 4 3 -2 6 -13 5 -11 0 -14 -3 -6 -6z"/>
<path d="M7080 4122 c0 -7 -8 -12 -17 -12 -15 0 -16 -2 -3 -10 10 -6 17 -4 23
6 5 9 6 18 3 21 -3 4 -6 1 -6 -5z"/>
<path d="M6965 4110 c-3 -6 1 -7 9 -4 18 7 21 14 7 14 -6 0 -13 -4 -16 -10z"/>
<path d="M6975 4057 c-17 -13 -17 -14 4 -20 11 -3 24 -1 27 4 3 5 0 9 -6 9 -6
0 -8 5 -5 10 8 14 2 13 -20 -3z"/>
<path d="M6956 4018 c4 -6 -2 -8 -17 -4 -13 3 -18 3 -11 0 6 -3 10 -9 7 -14
-2 -4 5 -16 18 -26 21 -18 21 -18 7 0 -13 16 -12 20 4 31 10 8 25 11 34 8 10
-4 14 -3 10 2 -11 12 -59 15 -52 3z"/>
<path d="M6910 3950 c-13 -8 -13 -10 2 -10 9 0 20 5 23 10 8 13 -5 13 -25 0z"/>
<path d="M6775 3900 c-7 -12 2 -12 30 0 19 8 19 9 -2 9 -12 1 -25 -3 -28 -9z"/>
<path d="M6925 3900 c4 -6 1 -17 -5 -25 -17 -20 -5 -19 14 1 16 16 13 34 -5
34 -6 0 -7 -5 -4 -10z"/>
<path d="M6256 3833 c-6 -14 -5 -15 5 -6 7 7 10 15 7 18 -3 3 -9 -2 -12 -12z"/>
<path d="M6238 3803 c7 -3 16 -2 19 1 4 3 -2 6 -13 5 -11 0 -14 -3 -6 -6z"/>
<path d="M6775 3780 c-4 -6 -4 -10 -1 -10 2 0 11 -3 20 -6 9 -3 16 -2 16 4 0
14 -28 23 -35 12z"/>
<path d="M6730 3765 c0 -10 29 -24 34 -17 3 6 -3 12 -14 15 -11 3 -20 4 -20 2z"/>
<path d="M6770 3735 c-22 -13 -23 -14 -5 -15 17 -1 15 -3 -9 -16 -15 -9 -37
-14 -47 -11 -11 3 -17 1 -14 -4 3 -4 -9 -13 -27 -18 l-33 -10 42 2 c22 1 39 6
35 11 -3 5 2 6 12 3 10 -4 20 -7 22 -7 3 0 2 -4 -1 -10 -3 -5 -24 -10 -45 -10
-21 0 -41 -3 -44 -8 -6 -10 75 -9 92 1 7 5 12 14 11 20 -3 26 2 35 23 40 12 4
19 9 15 13 -4 4 -2 13 4 21 15 17 1 16 -31 -2z"/>
<path d="M6588 3693 c7 -3 16 -2 19 1 4 3 -2 6 -13 5 -11 0 -14 -3 -6 -6z"/>
<path d="M6620 3680 c-9 -6 -10 -10 -3 -10 6 0 15 5 18 10 8 12 4 12 -15 0z"/>
<path d="M6575 3650 c-19 -8 -19 -9 3 -9 12 -1 22 4 22 9 0 6 -1 10 -2 9 -2 0
-12 -4 -23 -9z"/>
<path d="M6128 3533 c7 -3 16 -2 19 1 4 3 -2 6 -13 5 -11 0 -14 -3 -6 -6z"/>
<path d="M6498 3523 c7 -3 16 -2 19 1 4 3 -2 6 -13 5 -11 0 -14 -3 -6 -6z"/>
<path d="M5965 3500 c3 -5 16 -10 28 -9 21 0 21 1 2 9 -28 12 -37 12 -30 0z"/>
<path d="M6472 3490 c-14 -23 -15 -30 -4 -30 5 0 14 11 20 25 14 30 2 34 -16
5z"/>
<path d="M6095 3490 c4 -6 11 -8 16 -5 14 9 11 15 -7 15 -8 0 -12 -5 -9 -10z"/>
<path d="M6198 3463 c7 -3 16 -2 19 1 4 3 -2 6 -13 5 -11 0 -14 -3 -6 -6z"/>
<path d="M6273 3449 c-6 -6 -23 -11 -38 -11 -16 0 -23 -4 -17 -10 10 -10 56 5
67 21 8 14 2 14 -12 0z"/>
<path d="M5985 3440 c-17 -8 -17 -9 7 -7 15 1 24 5 22 9 -3 4 -6 8 -7 7 -1 0
-11 -4 -22 -9z"/>
<path d="M6081 3447 c2 -1 12 -9 22 -16 15 -12 17 -12 11 3 -3 9 -13 16 -22
16 -8 0 -13 -1 -11 -3z"/>
<path d="M6446 3442 c-2 -4 4 -9 15 -9 10 -1 19 2 19 8 0 11 -27 12 -34 1z"/>
<path d="M6170 3429 c0 -5 5 -7 10 -4 6 3 10 8 10 11 0 2 -4 4 -10 4 -5 0 -10
-5 -10 -11z"/>
<path d="M6038 3423 c6 -2 18 -2 25 0 6 3 1 5 -13 5 -14 0 -19 -2 -12 -5z"/>
<path d="M5888 3413 c6 -2 18 -2 25 0 6 3 1 5 -13 5 -14 0 -19 -2 -12 -5z"/>
<path d="M5957 3414 c-12 -13 -7 -24 8 -18 8 4 26 -1 40 -10 13 -9 26 -12 29
-7 3 5 -9 15 -27 22 -17 7 -35 14 -38 16 -3 2 -8 0 -12 -3z"/>
<path d="M6055 3400 c-3 -6 1 -7 9 -4 18 7 21 14 7 14 -6 0 -13 -4 -16 -10z"/>
<path d="M6200 3402 c0 -5 14 -7 30 -4 17 2 30 6 30 8 0 2 -13 4 -30 4 -16 0
-30 -4 -30 -8z"/>
<path d="M5910 3390 c-12 -8 -10 -10 8 -10 13 0 20 4 17 10 -7 12 -6 12 -25 0z"/>
<path d="M6169 3386 c6 -7 8 -22 5 -32 -6 -17 -5 -17 9 1 15 20 7 45 -15 45
-6 0 -6 -6 1 -14z"/>
<path d="M5790 3379 c0 -5 5 -7 10 -4 6 3 10 8 10 11 0 2 -4 4 -10 4 -5 0 -10
-5 -10 -11z"/>
<path d="M6237 3383 c-4 -3 -7 -11 -7 -17 0 -6 5 -5 12 2 6 6 9 14 7 17 -3 3
-9 2 -12 -2z"/>
<path d="M5958 3375 c-4 -4 2 -17 13 -28 14 -15 22 -18 30 -10 8 8 7 13 -2 18
-8 5 -10 4 -5 -3 4 -7 3 -12 -2 -12 -5 0 -13 9 -18 21 -5 11 -12 17 -16 14z"/>
<path d="M5760 3351 c0 -5 7 -14 15 -21 10 -9 15 -9 15 -1 0 6 -5 11 -11 11
-5 0 -7 5 -4 10 3 6 1 10 -4 10 -6 0 -11 -4 -11 -9z"/>
<path d="M6145 3350 c-3 -5 -18 -10 -33 -10 -20 0 -23 -3 -13 -9 9 -6 22 -6
34 1 17 9 19 8 14 -6 -4 -9 -2 -16 3 -16 6 0 10 11 10 25 0 27 -5 31 -15 15z"/>
<path d="M5835 3319 c-34 -21 -29 -25 10 -7 14 6 25 15 25 20 0 10 1 10 -35
-13z"/>
<path d="M5950 3332 c1 -20 19 -34 33 -26 13 8 12 11 -9 21 -13 6 -24 8 -24 5z"/>
<path d="M6028 3333 c7 -3 16 -2 19 1 4 3 -2 6 -13 5 -11 0 -14 -3 -6 -6z"/>
<path d="M6113 3298 c-16 -21 -23 -47 -14 -53 5 -2 11 9 15 26 3 17 10 28 16
24 6 -4 8 -11 5 -16 -3 -5 1 -6 10 -3 9 4 15 7 13 8 -2 1 -10 7 -19 14 -13 10
-18 10 -26 0z"/>
<path d="M5766 3278 c3 -4 9 -8 15 -8 5 0 9 4 9 8 0 5 -7 9 -15 9 -8 0 -12 -4
-9 -9z"/>
<path d="M6064 3255 c-4 -10 -15 -12 -34 -9 -15 4 -30 1 -34 -4 -4 -6 4 -9 19
-8 14 2 30 -3 36 -10 18 -22 25 -17 25 16 0 33 -4 38 -12 15z"/>
<path d="M5992 3213 c-7 -3 -17 -15 -22 -28 -5 -12 -26 -30 -47 -41 -31 -14
-34 -19 -18 -22 10 -2 21 1 23 7 2 6 9 11 14 11 6 0 -7 -18 -30 -40 -40 -38
-55 -59 -30 -44 8 5 9 2 5 -10 -11 -27 4 -17 89 64 43 41 70 67 58 57 -13 -11
-28 -15 -39 -11 -13 5 -16 4 -11 -4 4 -7 2 -12 -3 -12 -6 0 -11 -7 -11 -15 0
-8 -4 -15 -9 -15 -6 0 -9 9 -8 19 0 11 5 17 9 15 4 -3 8 2 8 12 0 11 6 15 20
11 13 -3 20 0 20 10 0 10 -6 13 -16 9 -14 -5 -15 -4 -4 9 11 14 14 14 24 -1
11 -14 13 -14 25 0 8 9 9 16 3 16 -6 0 -16 2 -24 4 -7 3 -19 2 -26 -1z m-67
-133 c-10 -11 -23 -20 -28 -20 -6 0 -2 9 8 20 10 11 23 20 28 20 6 0 2 -9 -8
-20z"/>
<path d="M5730 3201 c0 -5 5 -13 10 -16 6 -3 10 -2 10 4 0 5 -4 13 -10 16 -5
3 -10 2 -10 -4z"/>
<path d="M5610 3186 c0 -2 7 -7 16 -10 8 -3 12 -2 9 4 -6 10 -25 14 -25 6z"/>
<path d="M5668 3177 c-7 -7 -22 -18 -33 -25 -15 -9 -16 -11 -4 -12 8 0 26 11
39 25 24 25 22 36 -2 12z"/>
<path d="M5857 3173 c-26 -25 24 -36 60 -12 15 10 23 19 18 19 -6 0 -16 -5
-23 -12 -9 -9 -15 -9 -24 0 -14 14 -22 15 -31 5z"/>
<path d="M5540 3140 c0 -5 5 -10 11 -10 5 0 7 5 4 10 -3 6 -8 10 -11 10 -2 0
-4 -4 -4 -10z"/>
<path d="M5560 3119 c-30 -6 -28 -7 16 -6 28 0 56 -3 61 -6 6 -4 15 -1 21 6 8
9 2 12 -26 12 -21 0 -53 -3 -72 -6z"/>
<path d="M5494 3086 c-9 -15 -15 -29 -12 -31 10 -11 165 -1 176 10 4 4 -3 5
-15 2 -21 -5 -32 6 -15 16 4 2 1 2 -6 0 -7 -1 -23 2 -34 8 -18 10 -20 9 -15
-5 7 -19 -4 -21 -21 -4 -9 9 -12 9 -12 -2 0 -9 -11 -16 -25 -16 -29 -2 -30 -1
-9 21 9 9 14 18 11 21 -3 3 -13 -6 -23 -20z"/>
<path d="M5583 3044 c-7 -3 -9 -12 -6 -20 4 -11 9 -12 19 -3 8 7 14 7 14 1 0
-5 -7 -15 -15 -22 -9 -7 -13 -15 -10 -18 2 -3 13 6 24 19 14 17 16 28 9 37
-11 13 -16 13 -35 6z"/>
<path d="M4121 3864 c0 -11 3 -14 6 -6 3 7 2 16 -1 19 -3 4 -6 -2 -5 -13z"/>
<path d="M4134 3795 c4 -16 12 -34 17 -39 5 -6 5 4 -1 24 -12 42 -25 55 -16
15z"/>
<path d="M4156 3725 c4 -8 8 -15 10 -15 2 0 4 7 4 15 0 8 -4 15 -10 15 -5 0
-7 -7 -4 -15z"/>
<path d="M4170 3691 c0 -6 4 -13 10 -16 6 -3 7 1 4 9 -7 18 -14 21 -14 7z"/>
<path d="M4280 3406 c0 -3 9 -10 20 -16 11 -6 20 -8 20 -6 0 3 -9 10 -20 16
-11 6 -20 8 -20 6z"/>
<path d="M4190 3330 c-9 -6 -10 -10 -3 -10 6 0 15 5 18 10 8 12 4 12 -15 0z"/>
<path d="M4410 3336 c0 -2 8 -10 18 -17 15 -13 16 -12 3 4 -13 16 -21 21 -21
13z"/>
<path d="M4245 3250 c4 -6 11 -8 16 -5 14 9 11 15 -7 15 -8 0 -12 -5 -9 -10z"/>
<path d="M4307 3239 c7 -7 15 -10 18 -7 3 3 -2 9 -12 12 -14 6 -15 5 -6 -5z"/>
<path d="M4230 3236 c0 -2 8 -10 18 -17 15 -13 16 -12 3 4 -13 16 -21 21 -21
13z"/>
<path d="M4430 3216 c0 -2 7 -7 16 -10 8 -3 12 -2 9 4 -6 10 -25 14 -25 6z"/>
<path d="M4188 3198 c5 -5 16 -8 23 -6 8 3 3 7 -10 11 -17 4 -21 3 -13 -5z"/>
<path d="M4368 3183 c6 -2 18 -2 25 0 6 3 1 5 -13 5 -14 0 -19 -2 -12 -5z"/>
<path d="M4187 3173 c-3 -5 11 -9 30 -10 19 -1 32 1 29 5 -10 10 -54 13 -59 5z"/>
<path d="M4418 3173 c7 -3 16 -2 19 1 4 3 -2 6 -13 5 -11 0 -14 -3 -6 -6z"/>
<path d="M4456 3157 c3 -10 9 -15 12 -12 3 3 0 11 -7 18 -10 9 -11 8 -5 -6z"/>
<path d="M4420 3146 c0 -2 7 -7 16 -10 8 -3 12 -2 9 4 -6 10 -25 14 -25 6z"/>
<path d="M4260 3120 c0 -5 5 -10 11 -10 5 0 7 5 4 10 -3 6 -8 10 -11 10 -2 0
-4 -4 -4 -10z"/>
<path d="M4560 3120 c8 -5 20 -10 25 -10 6 0 3 5 -5 10 -8 5 -19 10 -25 10 -5
0 -3 -5 5 -10z"/>
<path d="M4615 3114 c11 -8 27 -20 35 -27 34 -29 43 -28 16 1 -15 16 -38 33
-50 36 -21 5 -21 5 -1 -10z"/>
<path d="M4293 3105 c0 -8 4 -12 9 -9 5 3 6 10 3 15 -9 13 -12 11 -12 -6z"/>
<path d="M4315 3080 c3 -5 11 -10 16 -10 6 0 7 5 4 10 -3 6 -11 10 -16 10 -6
0 -7 -4 -4 -10z"/>
<path d="M4556 3058 c3 -4 12 -8 20 -8 8 0 14 4 14 8 0 4 -9 8 -19 8 -11 0
-17 -4 -15 -8z"/>
<path d="M4335 3040 c3 -5 12 -7 20 -3 21 7 19 13 -6 13 -11 0 -18 -4 -14 -10z"/>
<path d="M4530 3040 c0 -5 5 -10 10 -10 6 0 10 5 10 10 0 6 -4 10 -10 10 -5 0
-10 -4 -10 -10z"/>
<path d="M4355 3021 c-11 -5 -23 -7 -27 -4 -12 6 -9 -15 2 -22 6 -3 10 -2 10
3 0 5 15 14 33 20 17 5 25 10 17 10 -8 0 -24 -3 -35 -7z"/>
<path d="M4580 3009 c-8 -5 -13 -9 -10 -9 3 0 20 -4 38 -9 25 -8 32 -7 29 2
-2 7 -8 12 -13 12 -5 0 -14 3 -19 7 -6 4 -17 3 -25 -3z"/>
<path d="M4415 3001 c-3 -6 -12 -8 -19 -5 -7 3 -16 -2 -20 -11 -3 -9 -11 -13
-17 -9 -8 4 -9 3 -5 -4 4 -8 15 -8 31 -2 17 7 25 5 29 -6 4 -10 -2 -14 -20
-14 -14 0 -23 -4 -19 -10 3 -5 12 -7 19 -4 8 3 17 1 21 -5 3 -6 16 -11 28 -11
l22 1 -22 12 c-26 14 -30 27 -11 38 10 7 10 9 -2 9 -12 0 -12 2 -1 9 8 5 9 11
3 15 -6 3 -13 2 -17 -3z"/>
<path d="M4753 2996 c24 -19 21 -24 -10 -19 -16 2 -2 -5 31 -17 68 -24 98 -21
44 4 -20 10 -42 24 -49 32 -6 8 -17 14 -23 14 -6 0 -3 -7 7 -14z"/>
<path d="M4460 2950 c13 -24 17 -25 17 -5 0 8 -6 16 -14 19 -11 4 -11 1 -3
-14z"/>
<path d="M4407 2904 c3 -7 9 -14 14 -14 14 0 10 17 -5 23 -10 4 -13 1 -9 -9z"/>
<path d="M5458 4123 c6 -2 18 -2 25 0 6 3 1 5 -13 5 -14 0 -19 -2 -12 -5z"/>
<path d="M5558 4013 c7 -3 16 -2 19 1 4 3 -2 6 -13 5 -11 0 -14 -3 -6 -6z"/>
<path d="M5480 3996 c0 -2 7 -6 15 -10 8 -3 15 -1 15 4 0 6 -7 10 -15 10 -8 0
-15 -2 -15 -4z"/>
<path d="M4676 3923 c-6 -14 -5 -15 5 -6 7 7 10 15 7 18 -3 3 -9 -2 -12 -12z"/>
<path d="M4540 3920 c8 -5 20 -10 25 -10 6 0 3 5 -5 10 -8 5 -19 10 -25 10 -5
0 -3 -5 5 -10z"/>
<path d="M4590 3921 c0 -10 19 -25 25 -20 1 2 -3 10 -11 17 -8 7 -14 8 -14 3z"/>
<path d="M5650 3920 c0 -5 5 -10 11 -10 5 0 7 5 4 10 -3 6 -8 10 -11 10 -2 0
-4 -4 -4 -10z"/>
<path d="M4520 3900 c8 -5 20 -10 25 -10 6 0 3 5 -5 10 -8 5 -19 10 -25 10 -5
0 -3 -5 5 -10z"/>
<path d="M4577 3889 c7 -7 15 -10 18 -7 3 3 -2 9 -12 12 -14 6 -15 5 -6 -5z"/>
<path d="M5483 3893 c9 -2 17 -9 17 -14 0 -5 5 -9 11 -9 8 0 8 5 -1 15 -7 8
-20 14 -29 14 -13 -1 -13 -2 2 -6z"/>
<path d="M4615 3880 c3 -5 11 -10 16 -10 6 0 7 5 4 10 -3 6 -11 10 -16 10 -6
0 -7 -4 -4 -10z"/>
<path d="M4667 3879 c7 -7 15 -10 18 -7 3 3 -2 9 -12 12 -14 6 -15 5 -6 -5z"/>
<path d="M5626 3874 c-11 -8 -15 -14 -9 -14 7 0 15 5 18 10 3 6 18 8 32 6 14
-3 23 -2 19 1 -13 13 -41 12 -60 -3z"/>
<path d="M4545 3870 c-3 -6 1 -7 9 -4 18 7 21 14 7 14 -6 0 -13 -4 -16 -10z"/>
<path d="M5412 3850 c0 -14 2 -19 5 -12 2 6 2 18 0 25 -3 6 -5 1 -5 -13z"/>
<path d="M4560 3845 c-33 -19 -10 -19 26 0 16 8 22 15 14 15 -8 -1 -26 -7 -40
-15z"/>
<path d="M4642 3844 c-11 -12 -10 -15 2 -20 22 -8 20 -25 -1 -17 -10 3 -15 3
-11 -1 9 -11 58 -15 58 -5 0 5 -4 9 -10 9 -5 0 -7 7 -4 15 5 11 2 13 -10 9
-12 -5 -15 -2 -10 10 8 20 3 20 -14 0z"/>
<path d="M4670 3856 c0 -2 7 -7 16 -10 8 -3 12 -2 9 4 -6 10 -25 14 -25 6z"/>
<path d="M5506 3840 c5 -4 27 -11 49 -14 45 -7 38 -2 -19 13 -22 6 -35 6 -30
1z"/>
<path d="M5630 3846 c0 -2 7 -9 15 -16 9 -7 15 -8 15 -2 0 5 -7 12 -15 16 -8
3 -15 4 -15 2z"/>
<path d="M4565 3820 c-3 -5 7 -8 25 -7 16 1 30 5 30 10 0 11 -48 9 -55 -3z"/>
<path d="M5484 3821 c3 -5 16 -11 28 -14 22 -6 22 -5 4 8 -22 17 -40 20 -32 6z"/>
<path d="M5666 3803 c-6 -14 -5 -15 5 -6 7 7 10 15 7 18 -3 3 -9 -2 -12 -12z"/>
<path d="M4556 3789 c7 -13 51 -16 51 -4 0 7 -13 12 -28 11 -15 -1 -25 -4 -23
-7z"/>
<path d="M5490 3796 c0 -2 7 -9 15 -16 9 -7 15 -8 15 -2 0 5 -7 12 -15 16 -8
3 -15 4 -15 2z"/>
<path d="M5610 3796 c0 -2 8 -10 18 -17 15 -13 16 -12 3 4 -13 16 -21 21 -21
13z"/>
<path d="M4533 3770 c1 -22 31 -28 43 -8 4 6 3 8 -4 4 -6 -3 -17 1 -26 9 -13
14 -15 13 -13 -5z"/>
<path d="M4660 3776 c0 -2 7 -6 15 -10 8 -3 15 -1 15 4 0 6 -7 10 -15 10 -8 0
-15 -2 -15 -4z"/>
<path d="M5412 3750 c0 -14 2 -19 5 -12 2 6 2 18 0 25 -3 6 -5 1 -5 -13z"/>
<path d="M5531 3754 c0 -11 3 -14 6 -6 3 7 2 16 -1 19 -3 4 -6 -2 -5 -13z"/>
<path d="M4675 3740 c4 -6 11 -8 16 -5 14 9 11 15 -7 15 -8 0 -12 -5 -9 -10z"/>
<path d="M5675 3739 c-4 -6 -5 -12 -2 -15 2 -3 7 2 10 11 7 17 1 20 -8 4z"/>
<path d="M4545 3730 c-3 -5 -1 -10 4 -10 6 0 11 5 11 10 0 6 -2 10 -4 10 -3 0
-8 -4 -11 -10z"/>
<path d="M4623 3725 c0 -8 4 -15 9 -15 4 0 8 5 8 11 0 5 5 7 12 3 7 -4 8 -3 4
4 -10 17 -33 15 -33 -3z"/>
<path d="M5480 3724 c0 -8 4 -13 9 -9 5 3 12 1 16 -5 3 -5 -1 -10 -9 -10 -9 0
-16 -5 -16 -10 0 -7 6 -7 20 0 11 6 20 14 20 18 0 4 -9 13 -20 20 -17 10 -20
10 -20 -4z"/>
<path d="M5550 3736 c0 -2 7 -7 16 -10 8 -3 12 -2 9 4 -6 10 -25 14 -25 6z"/>
<path d="M5602 3716 c7 -8 15 -12 17 -11 5 6 -10 25 -20 25 -5 0 -4 -6 3 -14z"/>
<path d="M4645 3696 l-25 -23 24 -13 c18 -9 28 -10 42 0 17 10 16 11 -9 7 -15
-2 -30 0 -33 4 -3 5 0 9 6 9 6 0 9 4 5 9 -3 5 7 11 22 13 22 2 24 5 11 10 -12
5 -26 -1 -43 -16z"/>
<path d="M4560 3698 c0 -19 5 -21 34 -9 18 7 18 8 3 14 -10 4 -17 1 -17 -6 0
-8 -4 -6 -10 3 -8 13 -10 12 -10 -2z"/>
<path d="M5370 3697 c0 -1 9 -10 20 -20 19 -16 20 -16 20 3 0 13 -7 20 -20 20
-11 0 -20 -1 -20 -3z"/>
<path d="M5520 3681 c0 -5 -9 -11 -20 -14 -11 -3 -20 -11 -20 -19 0 -10 2 -10
9 1 6 9 16 11 27 7 17 -7 16 -9 -9 -19 -28 -12 -27 -12 17 -12 l45 0 -26 23
c-23 20 -23 27 0 23 4 0 7 4 7 9 0 6 -7 10 -15 10 -8 0 -15 -4 -15 -9z"/>
<path d="M5570 3676 c0 -2 7 -7 16 -10 8 -3 12 -2 9 4 -6 10 -25 14 -25 6z"/>
<path d="M5387 3643 c-10 -9 -9 -23 1 -23 5 0 9 7 9 15 0 17 -1 18 -10 8z"/>
<path d="M5575 3625 c0 -13 3 -21 8 -18 4 2 7 10 7 18 0 8 -3 16 -7 18 -5 3
-8 -5 -8 -18z"/>
<path d="M4605 3630 c3 -4 14 -10 25 -13 11 -3 18 -2 15 3 -3 4 -14 10 -25 13
-11 3 -18 2 -15 -3z"/>
<path d="M4680 3610 c8 -5 20 -10 25 -10 6 0 3 5 -5 10 -8 5 -19 10 -25 10 -5
0 -3 -5 5 -10z"/>
<path d="M5516 3607 c-16 -12 -16 -14 -2 -26 9 -8 16 -9 16 -3 0 6 -6 13 -12
15 -8 3 -6 6 5 6 9 1 17 6 17 11 0 13 -3 13 -24 -3z"/>
<path d="M4670 3586 c0 -2 7 -7 16 -10 8 -3 12 -2 9 4 -6 10 -25 14 -25 6z"/>
<path d="M5483 3560 c1 -11 7 -22 14 -24 7 -3 13 -10 13 -16 0 -6 -4 -9 -8 -6
-4 2 -14 1 -22 -5 -15 -9 -13 -10 27 -14 24 -2 40 25 27 46 -4 8 1 9 16 4 15
-5 20 -4 16 4 -4 6 -18 11 -31 11 -13 0 -27 5 -30 10 -10 17 -24 11 -22 -10z"/>
<path d="M5087 3429 c7 -7 15 -10 18 -7 3 3 -2 9 -12 12 -14 6 -15 5 -6 -5z"/>
<path d="M5028 3413 c7 -3 16 -2 19 1 4 3 -2 6 -13 5 -11 0 -14 -3 -6 -6z"/>
<path d="M5150 3369 c0 -5 5 -7 10 -4 6 3 10 8 10 11 0 2 -4 4 -10 4 -5 0 -10
-5 -10 -11z"/>
<path d="M5110 3270 c-13 -8 -12 -10 3 -10 9 0 17 5 17 10 0 12 -1 12 -20 0z"/>
<path d="M5098 3233 c7 -3 16 -2 19 1 4 3 -2 6 -13 5 -11 0 -14 -3 -6 -6z"/>
<path d="M5126 3223 c-6 -14 -5 -15 5 -6 7 7 10 15 7 18 -3 3 -9 -2 -12 -12z"/>
<path d="M3059 2893 c-13 -15 -12 -15 9 -4 23 12 28 21 13 21 -5 0 -15 -7 -22
-17z"/>
</g>
</svg>
